<?xml version="1.0" standalone="no"?>
<!DOCTYPE svg PUBLIC "-//W3C//DTD SVG 20010904//EN"
 "http://www.w3.org/TR/2001/REC-SVG-20010904/DTD/svg10.dtd">
<svg version="1.0" xmlns="http://www.w3.org/2000/svg"
 width="1600.000000pt" height="2000.000000pt" viewBox="0 0 1600.000000 2000.000000"
 preserveAspectRatio="xMidYMid meet">

<g transform="translate(0.000000,2000.000000) scale(0.100000,-0.100000)"
fill="#000000" stroke="none">
<path d="M8186 18876 c3 -8 -4 -16 -18 -21 l-23 -8 23 -4 c12 -2 22 -11 22
-20 0 -9 6 -13 14 -10 14 5 44 -19 35 -27 -7 -8 -102 -17 -223 -21 -65 -3
-137 -10 -160 -16 -22 -6 -49 -13 -58 -14 -27 -6 -38 -15 -48 -40 -5 -12 -20
-25 -35 -29 -14 -4 -47 -21 -73 -39 -26 -18 -65 -39 -86 -46 -22 -7 -54 -28
-72 -46 -23 -24 -39 -32 -54 -28 -15 4 -35 -6 -68 -34 -26 -22 -57 -45 -69
-52 -13 -6 -23 -18 -23 -25 0 -7 -9 -21 -20 -31 -11 -10 -20 -27 -20 -37 0
-33 -28 -75 -55 -82 -19 -5 -25 -12 -23 -28 3 -18 -7 -24 -66 -43 -39 -12 -72
-27 -74 -33 -2 -6 5 -19 15 -29 10 -11 19 -34 21 -53 1 -21 -1 -30 -6 -22 -13
20 -57 -36 -70 -90 -9 -34 -9 -55 -1 -75 9 -25 7 -31 -21 -56 -30 -27 -31 -30
-19 -58 9 -23 9 -33 0 -42 -14 -14 -14 -80 0 -94 8 -8 8 -19 -3 -40 -19 -39
-12 -110 12 -116 11 -3 21 1 24 10 3 8 10 11 16 8 6 -4 8 -10 5 -15 -3 -5 1
-22 9 -38 10 -19 13 -42 9 -66 -3 -21 -1 -42 6 -50 7 -9 9 -27 3 -52 -5 -23
-3 -61 5 -98 14 -72 18 -186 8 -283 -6 -61 -5 -78 13 -115 20 -44 46 -158 37
-166 -3 -3 -17 0 -31 7 -15 6 -29 10 -31 7 -5 -4 48 -56 58 -56 3 0 6 -46 7
-102 1 -57 3 -125 3 -153 2 -79 1 -82 -32 -95 -27 -12 -30 -17 -26 -47 6 -45
49 -99 84 -106 36 -7 43 1 19 19 -16 11 -17 16 -6 29 10 12 9 16 -4 21 -9 3
-16 10 -16 14 0 10 20 8 38 -3 6 -5 12 -7 13 -5 0 2 2 73 4 158 2 85 8 178 13
205 6 28 15 133 21 235 17 282 30 341 99 437 12 17 22 35 22 41 0 5 7 15 15
22 8 7 15 19 15 27 0 9 14 32 30 52 45 53 45 53 46 89 1 18 6 43 11 55 30 66
43 99 43 112 0 22 128 148 193 189 32 21 73 38 91 39 18 1 40 7 47 13 49 36
153 43 210 14 22 -12 44 -18 49 -15 6 4 19 3 31 0 19 -7 20 -7 2 -21 -14 -11
-15 -13 -3 -14 13 0 13 -2 1 -9 -15 -10 -4 -15 59 -25 14 -3 27 -5 30 -5 3 -1
-2 -6 -10 -11 -13 -8 -13 -10 2 -10 9 0 19 4 22 9 3 5 17 11 32 14 18 3 22 1
15 -6 -23 -23 -9 -28 22 -8 l34 21 13 -24 c13 -26 49 -41 63 -27 15 15 91 -11
117 -40 21 -23 28 -27 38 -17 17 17 94 17 87 1 -4 -12 7 -17 20 -10 2 1 10 -6
18 -17 10 -13 30 -20 68 -23 30 -2 58 -8 63 -14 6 -5 21 -9 35 -9 15 0 33 -4
41 -10 9 -5 17 -5 21 1 8 13 99 -81 99 -103 0 -12 5 -15 16 -11 14 5 16 1 12
-20 -4 -21 -1 -27 13 -27 14 0 19 -7 19 -29 0 -16 -5 -31 -12 -33 -6 -2 -8
-10 -4 -17 6 -9 12 -4 22 15 12 22 12 34 3 56 -8 20 -9 32 -2 39 7 7 13 2 17
-16 8 -32 26 -24 26 12 0 37 11 21 20 -29 7 -33 5 -47 -7 -60 -9 -10 -13 -24
-10 -33 4 -8 2 -15 -4 -15 -6 0 -7 -5 -4 -11 8 -13 -22 -48 -51 -59 -25 -10
-26 -53 -2 -58 12 -2 17 -18 20 -63 3 -60 1 -63 -38 -60 -22 2 -39 -23 -28
-40 3 -5 16 -9 29 -9 31 0 56 -10 50 -20 -3 -5 4 -15 16 -23 14 -11 19 -21 15
-35 -5 -15 -2 -22 11 -25 17 -4 17 -5 1 -6 -10 0 -18 -7 -18 -15 0 -8 -9 -18
-20 -21 -12 -4 -29 -15 -39 -26 -18 -20 -32 -24 -103 -33 -20 -3 -49 -12 -63
-22 -14 -9 -25 -13 -25 -8 0 4 -10 -2 -22 -13 -13 -11 -44 -26 -70 -34 -27 -7
-48 -17 -48 -21 0 -5 -11 -6 -25 -2 -15 4 -25 2 -25 -5 0 -6 -8 -11 -19 -11
-13 0 -28 -19 -50 -64 -17 -35 -31 -67 -31 -70 0 -4 -7 -15 -16 -24 -10 -9
-12 -18 -6 -20 7 -2 4 -20 -7 -50 -30 -79 -40 -115 -39 -154 0 -40 -9 -61 -22
-53 -12 7 -21 -66 -20 -157 0 -21 -4 -38 -10 -38 -6 0 -8 -20 -4 -55 5 -43 4
-55 -7 -55 -8 0 -2 -11 14 -26 20 -18 27 -33 23 -47 -3 -11 0 -29 5 -39 5 -10
6 -24 2 -31 -4 -6 -9 -23 -9 -37 -1 -14 -3 -25 -4 -25 -8 0 -7 -56 1 -60 5 -4
9 1 9 9 0 8 6 13 13 10 7 -2 22 5 34 16 29 27 37 26 84 -12 43 -35 47 -48 22
-74 -16 -16 -18 -15 -30 15 -12 29 -45 51 -78 51 -17 0 -69 -47 -84 -78 -10
-18 -9 -23 4 -28 11 -5 13 -10 5 -19 -6 -7 -10 -17 -9 -21 1 -5 -3 -22 -10
-38 -9 -23 -9 -31 1 -37 7 -5 14 -37 16 -79 3 -49 9 -73 18 -77 8 -3 11 -9 8
-15 -4 -5 -10 -5 -17 1 -12 9 -118 -34 -125 -51 -2 -5 -21 -8 -43 -8 -26 0
-38 -4 -36 -12 1 -8 -7 -12 -23 -11 -14 2 -58 3 -97 3 -40 1 -73 5 -73 10 0
15 -43 12 -68 -5 -16 -12 -34 -14 -72 -9 -39 5 -50 4 -50 -7 0 -24 69 -38 155
-32 83 6 241 -20 230 -37 -3 -5 4 -11 15 -15 11 -3 20 -11 20 -17 0 -6 11 -3
25 6 23 15 27 15 49 0 21 -13 23 -19 15 -41 -12 -32 -3 -39 60 -48 77 -10 112
-25 122 -52 12 -33 11 -49 -4 -65 -8 -7 -17 -25 -20 -40 -5 -18 -20 -33 -50
-47 -51 -25 -67 -26 -67 -6 0 8 -9 15 -20 15 -18 0 -25 -11 -21 -34 1 -4 -4
-15 -10 -22 -17 -21 8 -93 37 -104 25 -10 34 -29 34 -75 0 -19 5 -37 10 -40 6
-3 10 -17 10 -30 0 -13 5 -25 12 -27 8 -3 6 -13 -9 -34 -28 -40 -25 -65 9 -78
16 -6 28 -18 28 -28 0 -10 7 -18 15 -18 8 0 15 4 15 8 0 5 14 9 30 9 17 0 30
-4 30 -9 0 -10 81 1 94 13 12 11 39 12 32 1 -16 -26 -183 -92 -232 -92 -41 0
-94 -11 -94 -19 0 -3 11 -18 25 -33 14 -16 22 -33 19 -42 -4 -11 0 -16 14 -16
11 0 26 -8 33 -17 12 -15 12 -16 -3 -11 -9 4 -24 0 -35 -8 -17 -14 -16 -15 14
-10 22 4 33 1 37 -9 3 -8 1 -15 -5 -15 -6 0 -7 -4 -4 -10 3 -5 17 -10 31 -10
13 0 24 -4 24 -10 0 -5 -14 -10 -31 -10 -22 0 -30 -4 -26 -14 3 -7 0 -19 -6
-25 -9 -10 -7 -16 8 -27 11 -8 25 -12 32 -9 16 6 2 -25 -23 -49 -15 -16 -11
-41 6 -31 5 3 12 1 15 -5 5 -8 11 -7 21 1 11 9 14 7 14 -9 0 -11 6 -23 13 -25
6 -3 2 -6 -10 -6 -12 -1 -25 -5 -28 -11 -4 -6 12 -8 45 -4 l52 6 -6 -29 c-7
-36 25 -79 51 -68 17 6 17 7 0 19 -16 12 -15 14 13 26 25 10 36 10 55 0 13 -7
21 -18 18 -26 -7 -19 22 -28 55 -16 37 13 80 4 92 -18 14 -25 2 -50 -23 -50
-25 0 -10 -20 17 -24 9 -1 16 -5 16 -9 0 -4 0 -13 0 -19 0 -9 -4 -8 -10 2 -8
12 -10 11 -10 -8 0 -17 7 -24 30 -29 23 -4 29 -10 25 -23 -4 -13 2 -21 25 -28
35 -13 39 -27 10 -35 -12 -3 -20 -14 -20 -26 0 -22 -14 -28 -25 -11 -10 16
-38 12 -31 -5 5 -15 -8 -20 -48 -15 -13 1 -17 -3 -13 -13 3 -8 1 -19 -5 -25
-14 -14 1 -35 22 -29 9 2 24 0 33 -4 10 -6 18 -5 22 1 3 5 1 10 -4 10 -6 0
-11 6 -11 14 0 9 -7 12 -20 9 -11 -3 -20 0 -20 6 0 14 21 14 57 0 24 -9 31 -7
50 15 12 14 32 26 44 26 19 0 21 -4 16 -39 -5 -41 10 -60 31 -39 8 8 13 6 18
-7 5 -13 -1 -25 -24 -44 -33 -27 -42 -56 -19 -64 9 -3 7 -9 -5 -24 -24 -26
-23 -36 1 -23 25 13 44 13 36 0 -4 -6 5 -5 19 2 14 6 26 18 26 26 0 9 7 13 20
9 21 -5 64 25 53 37 -4 4 0 4 9 1 21 -8 111 59 180 133 142 152 210 351 143
417 -13 14 -33 25 -44 25 -19 0 -154 140 -177 183 -15 28 -32 267 -27 372 2
44 12 160 23 257 25 222 25 217 3 190 -10 -11 -27 -33 -38 -49 -28 -40 -178
-193 -190 -193 -5 0 -28 -17 -51 -38 -58 -54 -85 -73 -56 -41 12 14 22 31 22
37 0 7 4 12 9 12 5 0 23 13 40 29 17 16 31 27 31 24 0 -3 25 20 56 51 30 32
53 63 51 71 -4 9 1 11 14 8 17 -5 18 -1 13 26 -6 29 -5 31 24 31 21 0 31 6 35
20 3 10 1 20 -3 22 -14 5 1 54 24 79 20 22 21 25 7 36 -14 11 -14 12 2 13 9 0
17 6 17 14 0 7 7 20 17 27 15 13 15 12 4 -9 -16 -30 -6 -42 14 -16 8 10 15 14
15 7 0 -23 -13 -43 -29 -43 -14 0 -14 -2 -1 -10 12 -7 19 -1 34 27 26 51 57
145 46 138 -6 -4 -10 -11 -10 -17 0 -10 -38 -48 -48 -48 -2 0 3 10 12 23 9 12
19 29 22 38 3 9 17 22 31 28 22 10 25 16 19 44 -4 20 -3 27 3 18 6 -10 12 -3
22 25 7 22 14 41 14 44 1 3 9 31 19 63 10 32 15 65 12 73 -3 8 -2 12 3 9 5 -3
12 4 16 15 3 11 10 20 14 20 14 0 176 160 173 171 -1 6 2 8 7 4 10 -5 101 101
101 118 0 5 -13 0 -30 -9 -37 -23 -53 -9 -20 17 14 10 31 24 38 30 7 5 16 8
21 5 9 -6 16 10 79 165 46 111 59 168 68 285 8 99 -2 128 -53 149 -38 16 -40
27 -13 97 11 29 20 64 20 78 0 14 7 47 15 74 8 28 18 81 22 118 3 37 9 68 13
68 11 0 30 58 30 92 0 16 8 41 18 55 39 60 48 399 14 493 -11 30 -30 82 -43
115 -12 33 -26 65 -31 72 -19 24 -37 130 -38 217 0 112 -22 195 -64 240 -17
18 -39 48 -48 66 -14 25 -22 30 -39 25 -15 -5 -19 -4 -14 4 12 20 -12 37 -103
77 -48 21 -95 44 -104 52 -10 8 -26 12 -36 10 -23 -6 -52 8 -52 25 0 7 -9 20
-20 30 -24 20 -26 37 -5 37 21 0 19 29 -2 37 -30 10 -52 34 -46 49 3 9 -7 19
-30 29 -20 8 -38 19 -41 24 -3 4 -19 11 -37 15 -46 9 -119 65 -119 91 0 30
-37 75 -61 75 -10 0 -19 4 -19 9 0 5 -8 7 -19 4 -10 -3 -22 0 -25 6 -4 6 -16
11 -27 11 -23 0 -55 17 -91 49 -15 13 -33 21 -41 18 -8 -3 -20 0 -26 6 -8 8
-14 8 -22 0 -8 -8 -5 -14 10 -22 12 -7 21 -16 21 -21 0 -10 -45 6 -70 25 -8 7
-24 15 -35 19 -16 6 -18 5 -7 -5 6 -7 12 -17 12 -22 0 -16 -63 2 -87 25 -14
13 -23 17 -23 9 0 -10 -13 -12 -57 -6 -32 4 -80 7 -106 6 -26 0 -57 5 -68 12
-16 10 -21 9 -29 -2 -7 -12 -19 -13 -73 -3 -87 16 -118 16 -111 -2z m1508
-689 c3 -12 24 -34 46 -47 29 -18 48 -40 65 -78 14 -29 25 -58 25 -65 -1 -15
-39 34 -40 50 0 13 -80 78 -132 107 -23 13 -29 20 -18 24 8 3 19 11 23 18 12
21 24 17 31 -9z m166 -143 c0 -8 -4 -12 -10 -9 -5 3 -10 10 -10 16 0 5 5 9 10
9 6 0 10 -7 10 -16z m-2780 -74 c0 -5 -4 -10 -10 -10 -5 0 -10 5 -10 10 0 6 5
10 10 10 6 0 10 -4 10 -10z m-30 -8 c0 -13 -12 -22 -22 -16 -10 6 -1 24 13 24
5 0 9 -4 9 -8z m1163 -199 c-7 -2 -19 -2 -25 0 -7 3 -2 5 12 5 14 0 19 -2 13
-5z m1127 -1228 c-3 -5 -19 -10 -37 -11 -23 -1 -30 3 -26 13 4 9 17 13 37 11
17 -2 29 -7 26 -13z m540 -239 c0 -3 -4 -8 -10 -11 -5 -3 -10 -1 -10 4 0 6 5
11 10 11 6 0 10 -2 10 -4z m-104 -233 c19 -25 17 -32 -6 -26 -11 3 -20 14 -20
24 0 24 9 24 26 2z m-586 -127 c-8 -8 -26 -17 -40 -21 -23 -6 -23 -5 5 14 34
24 57 28 35 7z m440 -32 c0 -21 -17 -17 -23 5 -3 14 -1 18 9 14 8 -3 14 -11
14 -19z m-29 -97 c-7 -18 -13 -38 -14 -45 0 -8 -8 -11 -18 -9 -13 4 -22 -4
-31 -23 -9 -20 -16 -26 -24 -19 -18 15 22 119 46 119 5 0 6 -9 3 -20 -8 -32
11 -23 26 12 11 24 11 33 3 36 -7 2 -9 9 -5 15 15 24 27 -34 14 -66z m-421 24
c0 -9 5 -22 12 -29 9 -9 7 -12 -10 -12 -19 0 -22 6 -22 36 0 21 4 33 10 29 6
-3 10 -14 10 -24z m-145 -11 c3 -5 -3 -10 -14 -10 -12 0 -21 5 -21 10 0 6 6
10 14 10 8 0 18 -4 21 -10z m75 -75 c8 -21 21 -35 31 -35 22 0 33 -70 13 -86
-8 -6 -14 -16 -14 -21 0 -6 -11 -13 -25 -15 -14 -3 -25 -1 -25 3 0 5 -8 9 -17
8 -15 0 -14 -3 5 -16 31 -22 28 -34 -8 -26 -26 5 -30 3 -30 -17 0 -13 -5 -20
-12 -17 -7 2 -12 14 -11 26 2 16 -3 21 -21 21 -14 0 -31 3 -40 6 -12 4 -16 0
-16 -15 0 -12 5 -21 10 -21 6 0 10 -4 10 -10 0 -5 -10 -10 -23 -10 -26 0 -64
60 -52 81 5 8 4 10 -3 5 -7 -4 -12 -1 -12 8 0 9 11 18 25 22 16 4 25 13 25 25
0 16 8 19 53 19 l52 -1 -33 -27 c-26 -22 -30 -30 -20 -40 18 -18 36 -15 43 8
3 10 22 29 41 40 42 26 36 40 -17 40 -22 0 -49 5 -60 10 -13 7 -19 7 -19 0 0
-5 -12 -10 -26 -10 -22 0 -25 2 -14 15 7 8 30 18 51 21 22 4 39 10 39 15 0 5
11 9 24 9 14 0 28 5 31 10 12 20 32 9 45 -25z m470 -45 c0 -11 -4 -20 -10 -20
-5 0 -10 9 -10 20 0 11 5 20 10 20 6 0 10 -9 10 -20z m80 -3 c0 -18 -21 -37
-41 -37 -30 0 -31 18 -2 34 35 19 43 19 43 3z m-445 -6 c3 -5 1 -12 -5 -16 -5
-3 -10 1 -10 9 0 18 6 21 15 7z m305 -8 c0 -5 -9 -19 -20 -33 -21 -26 -27 -12
-10 21 10 19 30 26 30 12z m16 -105 c-14 -19 -16 -20 -16 -5 0 10 5 28 12 40
11 19 13 20 16 5 2 -10 -4 -28 -12 -40z m-356 -4 c0 -8 -5 -12 -10 -9 -6 4 -8
11 -5 16 9 14 15 11 15 -7z m-110 -89 c0 -8 -7 -15 -15 -15 -16 0 -20 12 -8
23 11 12 23 8 23 -8z m450 -5 c0 -5 -7 -10 -16 -10 -8 0 -12 5 -9 10 3 6 10
10 16 10 5 0 9 -4 9 -10z m-725 -290 c-3 -5 -1 -10 4 -10 6 0 11 -7 11 -15 0
-12 -4 -11 -20 5 -24 24 -25 30 -4 30 8 0 12 -4 9 -10z m412 -342 c-3 -8 -6
-5 -6 6 -1 11 2 17 5 13 3 -3 4 -12 1 -19z m-687 -58 c0 -13 -11 -13 -30 0
-12 8 -11 10 8 10 12 0 22 -4 22 -10z m570 -100 c0 -5 -2 -10 -4 -10 -3 0 -8
5 -11 10 -3 6 -1 10 4 10 6 0 11 -4 11 -10z m-190 -200 c0 -5 -4 -10 -10 -10
-5 0 -10 5 -10 10 0 6 5 10 10 10 6 0 10 -4 10 -10z m-60 -44 c0 -2 -7 -7 -16
-10 -8 -3 -12 -2 -9 4 6 10 25 14 25 6z m-60 -46 c0 -5 -7 -10 -15 -10 -8 0
-15 5 -15 10 0 6 7 10 15 10 8 0 15 -4 15 -10z m-210 -34 c0 -3 -4 -8 -10 -11
-5 -3 -10 -1 -10 4 0 6 5 11 10 11 6 0 10 -2 10 -4z m-30 -366 c0 -13 -11 -13
-30 0 -12 8 -11 10 8 10 12 0 22 -4 22 -10z m30 -30 c0 -5 -4 -10 -10 -10 -5
0 -10 5 -10 10 0 6 5 10 10 10 6 0 10 -4 10 -10z m223 -200 c6 -23 -12 -38
-23 -20 -9 14 -2 40 10 40 4 0 10 -9 13 -20z"/>
<path d="M9110 15663 c-8 -13 -20 -23 -27 -23 -7 0 -13 -7 -13 -15 0 -20 10
-18 38 5 13 11 22 27 20 37 -3 16 -6 15 -18 -4z"/>
<path d="M7450 18550 c-13 -8 -13 -10 2 -10 9 0 20 5 23 10 8 13 -5 13 -25 0z"/>
<path d="M9450 18427 c0 -15 41 -27 58 -18 13 8 14 10 2 11 -8 0 -25 3 -37 6
-13 4 -23 4 -23 1z"/>
<path d="M8388 17673 c6 -2 18 -2 25 0 6 3 1 5 -13 5 -14 0 -19 -2 -12 -5z"/>
<path d="M8955 17110 c4 -6 11 -8 16 -5 14 9 11 15 -7 15 -8 0 -12 -5 -9 -10z"/>
<path d="M7658 16873 c-20 -5 -24 -18 -9 -28 6 -3 15 4 21 15 6 11 9 19 8 19
-2 -1 -11 -3 -20 -6z"/>
<path d="M7700 16863 l-25 -15 28 6 c15 4 27 2 27 -4 0 -5 -5 -10 -11 -10 -5
0 -7 -5 -3 -11 4 -7 0 -9 -14 -5 -13 5 -22 1 -26 -10 -5 -12 -14 -15 -40 -10
-20 4 -37 2 -41 -4 -3 -5 0 -7 8 -4 20 7 67 -13 67 -30 0 -20 20 -33 64 -41
27 -6 37 -4 32 3 -4 8 3 8 26 1 18 -6 41 -13 51 -16 9 -3 17 -10 17 -15 0 -5
-9 -6 -21 -3 -11 4 -53 -1 -92 -11 -118 -28 -182 -70 -182 -120 -1 -27 7 -30
25 -9 6 8 32 26 56 40 36 21 58 26 113 27 38 0 74 -3 80 -6 19 -12 12 -26 -13
-26 -28 0 -81 -18 -160 -54 -31 -14 -65 -26 -75 -26 -10 0 -25 -7 -32 -17 -13
-15 -10 -15 34 -9 38 6 48 4 53 -8 8 -22 24 -20 24 3 0 19 29 43 68 55 20 7
22 4 22 -26 0 -66 56 -126 123 -130 20 -2 37 -6 37 -9 0 -10 -31 -20 -41 -13
-5 3 -17 1 -26 -5 -14 -7 -10 -11 24 -20 53 -15 69 -33 43 -51 -10 -7 -17 -17
-14 -22 9 -14 110 -9 149 8 35 14 37 17 32 50 -5 31 -4 34 19 34 31 0 32 29 2
79 l-21 36 40 -39 c38 -36 41 -37 48 -17 10 32 -5 93 -30 121 -12 14 -30 39
-40 56 -10 17 -29 38 -44 47 l-26 17 39 -6 c22 -3 49 -12 60 -19 12 -7 45 -16
74 -20 28 -4 52 -11 52 -16 0 -12 37 -11 45 1 3 6 -4 11 -17 11 -17 1 -18 3
-5 6 24 6 22 13 -14 52 -18 20 -28 40 -24 49 4 12 3 13 -9 2 -13 -10 -18 -9
-31 3 -8 9 -25 19 -38 23 -12 3 -33 15 -47 24 -49 35 -151 69 -257 86 -60 9
-112 21 -117 25 -12 11 -15 11 -46 -8z m30 -63 c12 -8 11 -10 -7 -10 -12 0
-25 5 -28 10 -8 13 15 13 35 0z m-5 -50 c3 -5 2 -10 -4 -10 -5 0 -13 5 -16 10
-3 6 -2 10 4 10 5 0 13 -4 16 -10z m300 -88 c-3 -3 -11 0 -18 7 -9 10 -8 11 6
5 10 -3 15 -9 12 -12z m-215 -152 c0 -32 -14 -40 -24 -14 -10 27 -7 44 9 44
10 0 15 -10 15 -30z m177 -83 c-23 -35 -42 -34 -21 1 10 17 22 28 26 26 5 -3
3 -15 -5 -27z"/>
<path d="M7535 16841 c-7 -6 23 -31 36 -31 7 0 9 3 5 7 -3 4 6 12 21 18 26 11
25 11 -16 11 -23 -1 -44 -3 -46 -5z"/>
<path d="M6924 16518 c-10 -33 -5 -127 9 -176 l13 -42 24 47 c13 27 26 68 29
93 6 42 4 47 -28 73 -18 15 -35 27 -37 27 -1 0 -6 -10 -10 -22z"/>
<path d="M8146 15672 c-3 -5 -2 -18 1 -30 5 -20 10 -22 42 -16 50 9 55 13 35
35 -17 19 -68 26 -78 11z"/>
<path d="M8287 14945 c3 -14 10 -25 15 -25 13 0 6 43 -8 47 -7 2 -10 -6 -7
-22z"/>
<path d="M8408 14073 c6 -2 18 -2 25 0 6 3 1 5 -13 5 -14 0 -19 -2 -12 -5z"/>
<path d="M6783 13753 c-13 -2 -23 -9 -23 -14 0 -13 13 -11 36 6 10 8 17 14 14
13 -3 0 -15 -3 -27 -5z"/>
<path d="M8810 13721 c0 -5 -2 -15 -5 -23 -4 -10 6 -14 35 -14 l40 -1 -32 23
c-36 27 -38 28 -38 15z"/>
<path d="M8893 13513 c9 -9 20 -13 24 -9 4 4 1 11 -7 16 -25 16 -35 11 -17 -7z"/>
<path d="M8832 13463 c2 -10 11 -19 21 -21 16 -3 17 -1 7 17 -13 25 -33 28
-28 4z"/>
<path d="M8774 13339 c-3 -5 -14 -9 -25 -9 -11 0 -19 -6 -18 -12 3 -26 -1 -38
-15 -38 -27 0 -37 -109 -11 -130 12 -10 13 -16 4 -26 -8 -10 -8 -14 0 -14 20
0 26 -2 37 -11 19 -15 63 -7 56 11 -4 12 -2 13 9 3 14 -14 30 -17 28 -5 -3 20
3 30 21 35 11 3 20 0 20 -6 0 -6 3 -8 6 -5 3 4 -2 18 -11 32 -12 17 -15 36
-11 56 6 31 -2 38 -22 18 -6 -6 -15 -9 -19 -5 -3 4 3 16 14 27 12 10 23 25 26
32 5 11 7 11 15 0 7 -11 10 -11 15 2 5 11 -1 18 -21 22 -15 4 -31 10 -37 14
-18 13 -55 18 -61 9z m66 -153 c0 -8 -4 -18 -10 -21 -5 -3 -10 3 -10 14 0 12
5 21 10 21 6 0 10 -6 10 -14z"/>
<path d="M8994 13180 c-12 -5 -25 -14 -29 -20 -6 -10 50 13 64 26 7 7 -13 3
-35 -6z"/>
<path d="M9113 10643 c-7 -3 -13 -14 -13 -26 0 -15 3 -18 8 -9 6 9 13 0 22
-28 7 -22 10 -43 7 -47 -4 -3 -7 2 -8 13 0 17 -1 16 -9 -3 -5 -13 -16 -23 -25
-23 -8 0 -15 -4 -15 -10 0 -6 9 -6 25 0 23 9 24 8 13 -15 -14 -31 -4 -55 22
-55 17 0 20 4 15 20 -3 11 -2 20 2 20 5 0 20 18 32 41 27 47 22 89 -9 89 -14
0 -18 5 -13 17 5 13 2 15 -15 11 -11 -3 -22 -3 -24 2 -2 4 -9 5 -15 3z"/>
<path d="M9063 10616 c-29 -13 -30 -26 -3 -26 11 0 23 7 27 15 7 21 2 23 -24
11z"/>
<path d="M9244 10581 c3 -4 19 -11 36 -14 23 -5 30 -12 30 -30 0 -29 -18 -47
-47 -47 -13 0 -23 -4 -23 -10 0 -18 49 -11 70 10 40 40 13 100 -44 100 -15 0
-25 -4 -22 -9z"/>
<path d="M9390 10588 c0 -3 7 -27 16 -54 17 -51 30 -71 39 -63 8 9 -30 112
-43 117 -7 2 -12 2 -12 0z"/>
<path d="M9470 10530 c0 -33 4 -60 10 -60 6 0 10 19 10 43 l0 42 20 -25 c10
-14 20 -23 23 -20 25 32 48 73 43 78 -4 3 -17 -6 -29 -22 l-23 -28 -12 26 c-6
14 -18 26 -27 26 -12 0 -15 -13 -15 -60z"/>
<path d="M9640 10530 c0 -47 3 -60 15 -60 12 0 15 13 15 60 0 47 -3 60 -15 60
-12 0 -15 -13 -15 -60z"/>
<path d="M9720 10530 c0 -47 3 -60 15 -60 11 0 15 11 15 38 1 33 2 35 14 20
18 -24 20 -24 50 22 17 25 22 40 13 40 -7 0 -20 -12 -28 -27 l-17 -26 -17 26
c-30 46 -45 35 -45 -33z"/>
<path d="M9877 10572 c-23 -25 -21 -65 3 -87 25 -23 39 -12 17 13 -21 23 -22
46 -2 62 16 14 20 30 7 30 -5 0 -16 -8 -25 -18z"/>
<path d="M9930 10581 c0 -5 7 -14 15 -21 20 -16 19 -39 -2 -62 -22 -24 -13
-32 15 -12 27 19 29 64 4 87 -21 19 -32 22 -32 8z"/>
<path d="M9995 10580 c3 -5 14 -10 24 -10 50 0 50 -67 0 -77 -16 -3 -29 -10
-29 -15 0 -16 63 0 78 19 17 23 15 58 -4 77 -17 17 -79 23 -69 6z"/>
<path d="M10090 10580 c0 -5 20 -10 45 -10 25 0 45 5 45 10 0 6 -20 10 -45 10
-25 0 -45 -4 -45 -10z"/>
<path d="M9362 10533 c-5 -15 -13 -36 -17 -45 -4 -10 -3 -18 2 -18 15 0 42 65
33 79 -5 9 -11 4 -18 -16z"/>
<path d="M9572 10538 c-18 -18 -15 -68 3 -68 11 0 15 11 15 40 0 44 -1 45 -18
28z"/>
<path d="M9827 10543 c-11 -10 -8 -73 3 -73 6 0 10 18 10 40 0 41 -2 45 -13
33z"/>
<path d="M10090 10530 c0 -5 18 -10 40 -10 22 0 40 5 40 10 0 6 -18 10 -40 10
-22 0 -40 -4 -40 -10z"/>
<path d="M9025 10510 c3 -5 8 -10 11 -10 2 0 4 5 4 10 0 6 -5 10 -11 10 -5 0
-7 -4 -4 -10z"/>
<path d="M9054 10475 c11 -8 22 -12 25 -9 6 6 -19 24 -34 24 -5 -1 -1 -7 9
-15z"/>
<path d="M10090 10480 c0 -5 20 -10 45 -10 25 0 45 5 45 10 0 6 -20 10 -45 10
-25 0 -45 -4 -45 -10z"/>
<path d="M12145 7964 c-11 -3 -90 -18 -175 -35 -85 -16 -186 -36 -225 -44
-314 -61 -502 -87 -618 -84 l-112 3 -3 -40 c-6 -95 -74 -697 -87 -774 -8 -47
-17 -129 -20 -183 -2 -54 -7 -103 -11 -109 -4 -7 -3 -8 4 -4 7 4 10 -5 8 -29
-2 -19 0 -35 5 -35 6 0 6 -8 0 -19 -6 -10 -7 -21 -4 -25 3 -3 1 -6 -5 -6 -7 0
-12 -8 -12 -17 0 -14 2 -15 9 -5 7 11 10 10 15 -3 8 -23 8 -27 -4 -20 -5 3
-10 1 -10 -5 0 -6 -4 -8 -10 -5 -6 3 -7 -1 -3 -10 5 -13 7 -14 14 -3 7 10 9 9
9 -4 0 -10 3 -18 8 -18 13 0 10 -59 -4 -64 -16 -6 -19 -26 -3 -26 5 0 7 5 4
10 -3 6 0 10 8 10 7 0 14 -7 14 -15 0 -8 -6 -15 -13 -15 -7 0 -16 -5 -20 -11
-9 -16 36 -1 59 19 9 8 17 12 17 8 0 -11 -27 -36 -38 -36 -6 0 -9 -11 -8 -24
2 -17 -1 -23 -11 -19 -9 4 -11 0 -7 -11 7 -18 20 -21 29 -6 3 6 15 10 26 10
12 0 19 7 18 18 0 10 -3 12 -6 5 -7 -18 -20 -16 -27 4 -4 10 -4 14 0 11 4 -4
15 -3 25 3 18 9 18 3 18 -126 -1 -74 -5 -137 -9 -140 -4 -3 -4 -22 1 -42 5
-24 4 -39 -2 -41 -6 -3 -5 -10 2 -19 10 -12 10 -16 -2 -24 -11 -7 -11 -9 4 -9
15 0 17 -11 17 -77 0 -43 4 -96 9 -118 5 -22 12 -74 16 -115 8 -87 12 -123 19
-165 3 -16 14 -86 26 -155 11 -69 24 -145 29 -170 5 -25 14 -76 20 -114 7 -38
21 -108 32 -155 40 -172 63 -301 164 -936 41 -257 75 -649 75 -875 1 -185 -36
-445 -78 -549 -23 -58 -100 -182 -127 -206 -26 -23 -87 -128 -119 -206 -18
-46 -47 -113 -63 -149 -16 -36 -42 -100 -58 -143 -27 -76 -38 -89 -49 -64 -4
6 -4 2 -2 -10 2 -12 -1 -24 -8 -26 -17 -7 -34 -81 -42 -177 -7 -100 -18 -116
-106 -161 -166 -84 -302 -121 -508 -139 -74 -6 -178 -15 -230 -20 -158 -15
-440 -21 -1213 -24 -406 -2 -741 -7 -744 -10 -4 -3 1 -6 10 -6 13 0 17 -9 17
-35 0 -37 15 -72 39 -91 12 -9 12 -14 -1 -33 -15 -21 -13 -24 19 -57 18 -19
37 -33 42 -30 5 3 11 25 15 48 7 47 27 98 37 98 9 0 21 -32 14 -38 -3 -3 -5 1
-5 8 0 11 -3 11 -12 2 -10 -10 -10 -15 1 -21 22 -14 41 -1 49 33 l6 31 6 -30
c7 -37 43 -43 48 -7 2 12 7 22 11 22 18 0 32 -29 26 -53 -4 -14 -2 -28 4 -31
6 -4 11 -16 11 -26 0 -10 4 -21 9 -24 5 -4 7 3 4 14 -3 12 0 20 6 20 20 0 61
-48 61 -70 0 -17 4 -20 19 -15 28 9 44 -25 31 -61 -14 -35 -6 -54 22 -55 21
-1 21 -1 -4 -11 -42 -15 -34 -25 23 -33 31 -4 46 -10 39 -15 -10 -6 -9 -9 1
-13 8 -4 2 -4 -14 -1 -22 5 -27 3 -27 -12 0 -30 13 -42 45 -46 27 -3 30 0 33
29 2 18 7 33 12 33 5 0 7 -6 4 -14 -5 -14 37 -28 54 -17 5 3 15 30 22 58 8 29
17 53 21 53 4 0 11 -21 15 -47 6 -45 28 -113 37 -113 2 0 2 25 -1 55 -5 58 3
105 17 105 5 0 15 -34 22 -75 9 -60 15 -75 29 -75 17 0 37 -46 25 -58 -3 -3
-5 1 -5 9 0 9 -3 10 -8 3 -4 -6 -16 -16 -27 -21 -14 -8 -19 -21 -19 -50 1 -33
0 -34 -3 -6 -3 21 -10 33 -20 33 -10 0 -13 -6 -9 -16 3 -9 6 -45 6 -80 0 -52
3 -66 18 -71 9 -4 21 -13 25 -20 5 -7 12 -11 18 -8 15 10 -9 45 -26 39 -12 -5
-15 3 -15 35 0 30 4 41 15 41 11 0 15 12 16 43 1 23 3 34 6 24 3 -11 13 -27
23 -37 23 -23 40 -8 40 33 0 17 4 26 10 22 6 -4 8 -14 6 -23 -3 -10 -1 -24 4
-32 8 -12 10 -10 11 10 1 17 3 19 6 8 7 -27 23 -22 23 7 0 18 -5 25 -20 25
-13 0 -20 7 -20 19 0 11 -4 23 -10 26 -16 10 -12 35 5 29 21 -8 30 21 18 59
-6 19 -6 45 -1 65 7 26 5 40 -7 58 -15 24 -12 74 5 74 5 0 6 -9 3 -20 -3 -12
2 -29 11 -39 9 -10 13 -21 9 -24 -3 -4 0 -7 8 -7 17 0 35 -39 43 -95 13 -81
18 -95 32 -95 10 0 14 12 14 38 0 28 3 33 10 22 9 -13 12 -13 24 2 7 10 19 18
27 18 10 -1 8 -4 -4 -11 -16 -10 -16 -12 5 -30 13 -11 18 -18 12 -15 -7 3 -18
-1 -25 -10 -10 -13 -10 -20 4 -44 10 -16 17 -49 17 -77 0 -51 13 -75 36 -66 8
3 14 -1 14 -11 0 -9 -7 -16 -16 -16 -14 0 -15 -7 -11 -37 4 -20 12 -40 19 -45
10 -6 8 -8 -4 -8 -26 0 -22 -15 9 -29 31 -14 46 0 37 36 -4 16 -1 25 10 29 9
3 16 15 16 25 0 24 -17 25 -24 2 -2 -10 -4 -3 -3 16 3 45 22 51 31 9 14 -62
28 -163 30 -208 2 -43 34 -122 37 -90 8 85 7 94 -7 104 -10 8 -16 33 -18 76
-2 36 -7 77 -11 91 -9 36 12 47 27 15 6 -14 15 -26 21 -26 5 0 6 -11 3 -25 -5
-19 -2 -25 10 -25 12 0 15 6 10 25 -5 20 -3 25 13 25 15 0 20 -10 26 -49 9
-69 33 -76 33 -10 0 58 22 169 34 169 4 0 8 18 8 40 0 22 -4 40 -10 40 -5 0
-10 -10 -10 -22 0 -33 -22 -87 -38 -93 -20 -8 -27 2 -14 18 6 7 9 23 5 35 -5
20 -24 27 -59 23 -20 -2 -41 143 -23 155 5 3 9 -2 9 -11 0 -9 4 -14 10 -10 5
3 13 -9 18 -27 6 -25 16 -36 43 -45 31 -10 36 -9 52 13 33 43 40 30 35 -67 -4
-68 -2 -93 8 -104 8 -7 14 -34 14 -59 0 -44 1 -46 28 -46 23 0 29 -6 40 -41 9
-29 10 -45 2 -54 -7 -8 -5 -21 6 -44 11 -21 14 -44 9 -70 -5 -28 -2 -41 10
-51 23 -19 41 1 24 27 -13 22 -5 58 11 48 18 -11 50 15 50 40 0 18 -7 26 -25
31 -15 4 -25 13 -25 25 0 12 5 16 15 13 12 -5 15 2 15 35 0 34 -3 39 -17 35
-16 -5 -16 -4 -2 8 9 7 18 27 22 43 5 29 4 30 -36 33 -23 1 -43 4 -44 6 -2 2
1 25 7 51 8 34 8 51 -1 61 -6 7 -12 28 -13 46 -4 47 11 183 25 240 13 49 29
65 29 28 0 -32 1 -34 16 -52 9 -9 17 -40 18 -70 2 -40 7 -54 19 -56 13 -3 16
4 15 32 -1 24 -6 36 -16 36 -12 0 -13 11 -7 58 8 62 9 67 23 58 8 -5 17 -61
26 -156 1 -14 8 -35 14 -47 14 -25 16 -45 3 -24 -12 19 -31 5 -31 -24 0 -18 4
-23 15 -19 8 4 17 -1 21 -10 12 -31 27 -16 21 22 -2 21 -1 46 4 54 5 9 11 71
13 138 2 66 6 123 9 126 2 3 14 -6 25 -20 10 -14 22 -22 26 -19 3 3 6 47 7 97
1 155 20 63 29 -144 5 -102 13 -216 19 -255 5 -38 10 -106 11 -150 0 -50 6
-90 15 -105 8 -14 14 -50 15 -80 0 -30 3 -92 7 -137 l6 -83 497 0 497 0 7 38
c3 20 6 62 7 92 1 72 11 104 32 108 9 2 17 -1 17 -7 0 -17 60 -81 91 -97 15
-7 45 -13 66 -13 21 1 30 3 20 6 -11 3 -16 11 -13 19 3 7 -2 17 -11 22 -14 8
-13 10 2 15 9 4 13 11 10 17 -3 5 -1 10 4 10 6 0 11 5 11 10 0 6 14 40 31 76
24 52 34 64 47 59 9 -4 21 -7 27 -8 5 -1 13 32 17 73 3 41 14 97 23 124 9 27
13 52 8 56 -12 11 -104 58 -137 70 -26 10 -28 13 -21 48 4 20 9 91 10 157 4
128 23 240 55 311 18 43 20 44 47 32 15 -6 42 -27 59 -45 l30 -35 -2 89 c-1
48 -3 90 -3 92 -1 2 -7 -1 -13 -7 -10 -8 -13 1 -14 39 -1 27 -10 68 -20 92
-15 34 -18 72 -20 192 0 83 3 160 7 173 5 14 5 30 0 40 -11 19 -51 24 -51 5 0
-7 -9 -13 -21 -13 -15 0 -19 4 -15 16 3 9 6 25 6 37 0 18 2 19 10 7 8 -12 10
-12 11 5 l0 20 9 -20 c5 -11 9 -15 9 -8 1 7 8 10 17 6 13 -5 15 -2 9 18 -4 13
-12 25 -16 27 -18 7 -8 22 14 22 12 0 29 4 37 10 12 7 12 12 -4 29 -14 16 -15
23 -6 41 6 12 13 38 15 58 2 21 1 31 -1 25 -3 -7 -12 -13 -20 -13 -8 0 -14 -4
-14 -9 0 -4 -11 -20 -25 -35 -22 -24 -25 -25 -25 -8 0 21 -39 52 -64 52 -8 0
-21 13 -29 30 -13 25 -13 31 -1 41 8 6 14 8 14 4 0 -4 6 -3 13 2 6 6 24 13 40
17 24 6 27 11 27 45 0 30 5 40 25 51 18 9 25 22 25 42 0 23 4 28 24 28 13 0
31 3 40 6 11 4 16 1 16 -10 0 -9 -7 -16 -15 -16 -29 0 -15 -25 15 -27 25 -2
30 2 30 20 1 22 1 22 15 2 24 -30 13 -40 -40 -36 -31 2 -45 -1 -41 -8 4 -5 14
-7 23 -4 14 5 15 1 10 -25 -4 -17 -2 -34 3 -37 6 -4 7 -11 4 -17 -5 -7 -11 -5
-19 6 -11 14 -14 11 -27 -29 -12 -36 -13 -45 -2 -45 7 0 16 5 20 11 3 6 15 8
26 6 14 -4 22 0 25 14 7 25 23 24 23 -2 0 -12 5 -19 13 -16 7 2 11 19 11 41
-2 36 -1 36 17 20 11 -9 19 -22 19 -28 0 -6 20 -12 45 -13 41 -1 45 1 45 22 0
12 7 28 15 35 19 16 16 54 -5 56 -8 1 -19 2 -23 3 -11 1 11 41 23 41 6 0 10
-7 10 -15 0 -8 5 -15 10 -15 6 0 16 -11 22 -25 6 -14 20 -25 31 -25 16 0 17 3
7 15 -10 12 -10 15 4 15 9 0 16 -6 16 -12 0 -7 7 -26 15 -41 14 -26 13 -28 -5
-22 -12 4 -22 0 -28 -12 -10 -17 -11 -17 -29 0 -11 9 -23 17 -26 17 -13 0 -7
-27 8 -40 8 -7 15 -28 15 -46 0 -27 5 -36 24 -44 13 -5 26 -15 28 -22 4 -10 9
-9 24 4 20 18 56 15 82 -5 9 -7 6 -13 -15 -24 -14 -7 -36 -12 -47 -11 -15 2
-21 -3 -21 -17 0 -11 -4 -26 -8 -33 -9 -14 10 -45 23 -37 4 2 7 -17 7 -43 0
-26 2 -100 5 -164 3 -65 1 -118 -3 -118 -5 0 -9 6 -9 13 0 8 -3 8 -9 -2 -6 -9
-4 -19 4 -28 16 -15 9 -42 -14 -60 -14 -12 -14 -14 2 -27 17 -13 24 -56 9 -56
-5 0 -9 -14 -10 -30 0 -17 -3 -38 -7 -49 -3 -10 -1 -31 6 -47 6 -16 13 -76 16
-134 3 -65 10 -113 19 -127 8 -12 14 -27 14 -33 0 -6 10 -24 22 -40 20 -28 21
-30 5 -72 -10 -24 -17 -56 -17 -70 0 -35 -14 -42 -43 -23 -22 14 -26 14 -37 0
-7 -8 -10 -25 -7 -37 4 -15 -3 -33 -24 -60 -22 -27 -26 -38 -16 -38 18 0 30
-30 22 -51 -3 -8 -15 -19 -28 -24 -15 -7 -24 -22 -28 -47 -3 -20 -13 -48 -23
-63 -9 -14 -16 -36 -14 -48 1 -13 -8 -37 -20 -54 -13 -18 -30 -56 -38 -85 -9
-29 -20 -57 -24 -62 -5 -5 -6 -15 -3 -23 3 -8 0 -19 -7 -23 -14 -9 -21 -60 -8
-60 4 0 8 -7 8 -15 0 -24 73 -24 100 0 12 11 41 15 104 15 80 0 89 2 110 25
12 13 33 55 46 93 22 66 24 68 52 64 66 -10 94 27 144 185 26 82 32 94 58 103
16 5 37 19 47 31 18 21 23 38 34 134 3 28 12 70 20 95 7 25 13 52 12 61 0 8
11 40 25 70 14 29 29 70 33 89 4 19 16 46 27 61 27 37 25 123 -6 227 -23 76
-47 251 -75 537 -5 55 -17 145 -26 200 -19 115 -12 326 13 379 24 51 32 104
21 130 -12 26 -5 61 10 52 13 -9 40 67 45 126 3 36 -4 83 -20 143 -43 162 -54
291 -49 615 2 162 8 336 14 385 5 50 12 135 16 190 4 55 8 116 10 135 7 78 15
322 20 625 3 176 8 365 10 420 3 55 7 237 10 405 3 168 7 391 9 495 5 246 -9
682 -28 860 -8 77 -31 221 -51 320 -33 170 -58 371 -48 388 9 16 -9 157 -21
156 -6 -1 -20 -3 -31 -5z m-365 -94 c0 -5 8 -10 19 -10 10 0 24 -6 31 -14 13
-17 40 -10 40 10 0 8 5 14 10 14 13 0 13 -12 0 -44 -11 -29 -8 -31 20 -14 16
10 23 7 52 -23 19 -20 40 -38 47 -40 8 -3 15 -18 17 -34 2 -18 15 -41 34 -58
17 -15 30 -35 28 -45 -1 -9 3 -32 11 -50 11 -26 11 -35 1 -47 -11 -13 -10 -21
1 -42 11 -21 11 -27 2 -30 -15 -5 -17 -33 -3 -33 6 0 10 -7 10 -16 0 -11 -5
-14 -16 -10 -12 4 -15 2 -11 -9 4 -8 2 -17 -4 -21 -12 -7 8 -34 26 -34 13 0
25 -21 25 -46 0 -8 -6 -14 -14 -14 -9 0 -12 -7 -9 -20 3 -11 10 -20 15 -20 5
0 16 -7 25 -15 14 -14 13 -15 -11 -9 -17 4 -26 2 -26 -5 0 -21 32 -61 49 -61
13 0 14 -2 1 -10 -14 -9 -13 -16 21 -82 5 -10 9 -26 9 -36 0 -10 5 -23 12 -30
9 -9 7 -12 -10 -12 -20 0 -21 -4 -17 -47 2 -27 2 -40 -1 -30 -4 12 -12 16 -24
12 -11 -3 -20 0 -24 10 -3 8 -12 15 -20 15 -8 0 -16 6 -19 13 -2 6 -8 9 -12 5
-4 -4 -3 -13 3 -20 16 -21 52 -88 52 -98 0 -6 -3 -9 -7 -7 -11 3 -14 -10 -7
-28 4 -8 12 -15 19 -15 13 0 28 -37 17 -44 -4 -2 -19 -6 -34 -10 -24 -5 -28
-3 -28 15 0 27 -5 22 -14 -12 -5 -25 -4 -27 27 -25 22 1 32 -3 32 -14 0 -10
-10 -15 -27 -15 -32 -1 -43 -10 -53 -43 -5 -19 -2 -25 14 -29 12 -3 21 -11 21
-18 0 -9 -8 -11 -22 -7 l-22 5 22 -30 c12 -17 22 -34 22 -38 0 -4 8 -14 17
-21 20 -14 15 -24 -14 -28 -17 -3 -27 -26 -10 -26 9 0 35 -23 34 -30 0 -3 3
-13 8 -23 4 -10 5 -20 2 -23 -7 -7 -47 19 -47 31 -1 13 -69 65 -87 65 -15 0
12 -30 43 -49 18 -10 17 -10 -4 -11 -28 0 -58 15 -89 43 -15 13 -23 16 -23 8
0 -8 15 -27 34 -45 41 -38 52 -58 61 -113 7 -46 3 -49 -39 -33 -28 10 -36 40
-11 40 8 0 -1 16 -24 40 -44 46 -55 51 -39 15 6 -14 15 -25 19 -25 4 0 9 -7
12 -14 8 -21 -23 -8 -50 21 -12 13 -31 23 -43 23 -15 0 -20 6 -20 27 0 44 -20
12 -25 -39 -5 -55 14 -90 38 -69 14 11 15 8 14 -21 -1 -18 2 -45 6 -60 l7 -27
-25 25 c-14 14 -25 29 -25 34 0 5 -9 14 -20 20 -17 9 -19 8 -13 -7 4 -10 21
-34 40 -53 18 -19 33 -40 33 -47 0 -7 7 -13 15 -13 8 0 15 -9 15 -19 0 -11 4
-21 10 -23 5 -1 7 -13 4 -25 -7 -25 -44 -32 -44 -9 0 8 -7 17 -16 20 -11 4
-13 10 -5 23 11 21 -3 53 -24 53 -8 0 -15 -9 -15 -20 0 -11 -7 -20 -15 -20 -8
0 -15 9 -15 19 0 11 -4 22 -9 25 -13 8 -51 84 -51 101 0 8 -7 15 -16 15 -13 0
-15 -7 -10 -30 6 -34 -8 -33 -17 0 -3 12 2 27 11 36 14 15 14 19 -2 49 -10 18
-15 38 -12 43 3 6 1 23 -5 39 l-11 28 -15 -35 c-12 -28 -13 -41 -3 -75 16 -49
20 -86 13 -98 -7 -12 -32 25 -33 49 0 25 -24 49 -40 39 -5 -3 -10 -13 -10 -21
0 -8 -5 -12 -11 -9 -6 4 -8 13 -5 21 3 8 1 26 -5 40 -10 28 -4 64 11 64 5 0
12 -10 16 -22 7 -22 7 -22 14 -3 6 15 1 24 -21 38 -30 20 -36 32 -19 42 6 3
10 17 10 30 0 13 5 27 10 30 14 9 13 42 -2 47 -9 3 -9 12 1 36 7 17 10 35 7
40 -3 5 4 18 16 28 21 19 21 19 13 -11 -4 -16 -9 -69 -11 -117 -3 -86 -3 -87
15 -69 16 16 18 26 10 67 -6 31 -6 51 1 58 7 7 11 5 12 -4 3 -33 13 -65 29
-90 5 -8 16 -31 25 -50 13 -27 18 -31 21 -17 3 10 0 23 -5 30 -5 7 -13 27 -17
45 -3 17 -11 32 -16 32 -5 0 -9 13 -9 29 0 17 -4 33 -10 36 -11 7 -14 48 -3
59 4 3 8 34 10 67 3 54 -4 84 -34 142 -3 4 1 6 8 5 9 -2 13 12 14 47 0 42 3
50 18 48 15 -1 17 4 13 23 -4 14 -2 24 4 24 6 0 15 11 20 24 5 13 18 27 30 31
27 9 22 39 -8 43 -12 2 -22 7 -22 12 0 5 6 7 13 4 18 -7 41 22 33 41 -3 8 -14
15 -25 15 -27 0 -33 13 -18 44 9 21 17 25 35 21 15 -4 22 -1 22 10 0 9 -9 15
-25 15 -15 0 -25 6 -25 14 0 22 -29 41 -42 28 -16 -16 -28 -15 -28 2 0 8 7 17
16 20 13 5 13 9 -5 34 -16 23 -18 32 -8 42 10 10 9 12 -5 7 -23 -8 -31 8 -17
31 7 12 19 17 31 14 10 -2 18 1 18 7 0 6 -9 11 -20 11 -13 0 -20 7 -20 20 0
11 -7 20 -15 20 -20 0 -37 36 -37 79 1 49 -7 71 -24 71 -18 0 -18 25 1 44 8 8
15 23 15 34 0 10 12 35 28 55 21 28 36 37 70 43 23 3 56 4 72 0 19 -3 30 -1
30 5 0 6 7 8 16 5 8 -3 12 -2 9 4 -3 6 -1 10 4 10 6 0 11 -4 11 -10z m-260
-75 c0 -8 -7 -15 -15 -15 -16 0 -20 12 -8 23 11 12 23 8 23 -8z m-20 -50 c0
-8 -4 -15 -10 -15 -5 0 -10 7 -10 15 0 8 5 15 10 15 6 0 10 -7 10 -15z m550
-31 c0 -8 -4 -14 -10 -14 -5 0 -10 9 -10 21 0 11 5 17 10 14 6 -3 10 -13 10
-21z m-530 -64 c0 -5 -2 -10 -4 -10 -3 0 -8 5 -11 10 -3 6 -1 10 4 10 6 0 11
-4 11 -10z m76 -897 c-11 -11 -19 6 -11 24 8 17 8 17 12 0 3 -10 2 -21 -1 -24z
m-76 -203 c0 -5 -7 -7 -15 -4 -8 4 -15 8 -15 10 0 2 7 4 15 4 8 0 15 -4 15
-10z m-54 -267 c-10 -10 -19 5 -10 18 6 11 8 11 12 0 2 -7 1 -15 -2 -18z m464
-59 c0 -7 -4 -16 -10 -19 -5 -3 -10 -4 -10 -1 0 2 -2 11 -5 19 -4 8 0 14 10
14 8 0 15 -6 15 -13z m-49 -21 c74 -63 91 -82 85 -101 -5 -14 -1 -21 14 -25
22 -6 27 -45 10 -78 -13 -23 -62 -26 -80 -4 -10 12 -10 15 3 15 8 0 20 7 27
15 11 13 9 19 -7 38 -12 12 -35 49 -52 81 -41 78 -41 93 0 59z m-181 -80 c0
-7 -4 -13 -10 -13 -5 0 -10 -7 -10 -16 0 -8 4 -12 10 -9 15 9 35 -7 37 -30 3
-38 12 -64 30 -83 54 -59 64 -72 57 -72 -5 0 -33 23 -63 50 -29 28 -57 50 -62
50 -17 0 -48 35 -50 56 -5 45 2 84 16 98 8 8 15 21 16 28 1 15 28 -41 29 -59z
m288 48 c3 -8 -1 -12 -9 -9 -7 2 -15 10 -17 17 -3 8 1 12 9 9 7 -2 15 -10 17
-17z m-427 -115 c5 -6 9 -21 8 -35 0 -25 -1 -25 -9 -5 -5 12 -13 25 -19 29
-13 7 -15 48 -3 59 4 4 9 -3 10 -16 2 -12 8 -27 13 -32z m213 -1 c-4 -8 -8
-15 -10 -15 -2 0 -4 7 -4 15 0 8 4 15 10 15 5 0 7 -7 4 -15z m310 -1 c3 -8 2
-12 -4 -9 -6 3 -10 10 -10 16 0 14 7 11 14 -7z m-399 -94 c16 -18 16 -20 2
-20 -9 0 -21 9 -27 20 -6 11 -7 20 -2 20 5 0 17 -9 27 -20z m-105 -102 c0 -9
7 -21 16 -26 17 -9 38 -107 28 -124 -10 -16 -24 3 -24 32 0 16 -4 32 -10 35
-5 3 -10 19 -10 34 0 15 -4 31 -9 37 -5 5 -12 25 -15 44 -7 35 -7 35 8 10 9
-14 15 -33 16 -42z m150 52 c0 -5 -2 -10 -4 -10 -3 0 -8 5 -11 10 -3 6 -1 10
4 10 6 0 11 -4 11 -10z m-40 -69 c0 -25 -18 1 -25 34 l-6 30 15 -25 c8 -14 15
-32 16 -39z m128 18 c19 -31 4 -38 -18 -9 -11 14 -20 28 -20 32 0 13 25 -2 38
-23z m-56 -39 c4 0 8 -10 8 -21 0 -12 8 -28 18 -36 12 -10 14 -16 5 -19 -7 -3
-13 -12 -13 -20 0 -8 -5 -14 -11 -14 -6 0 -8 12 -6 28 2 15 1 36 -3 47 -8 19
-8 19 -18 -5 -6 -14 -11 -19 -11 -11 -1 8 -7 11 -16 7 -20 -7 -32 21 -15 37
10 9 14 9 17 0 10 -26 22 -12 18 20 -5 29 -5 30 6 10 7 -13 16 -23 21 -23z
m45 5 c8 -9 13 -19 10 -22 -6 -5 -37 21 -37 31 0 10 11 6 27 -9z m43 -51 c0
-22 -16 -17 -17 6 -1 11 2 18 8 15 5 -4 9 -13 9 -21z m46 -74 c15 -47 23 -60
36 -57 14 4 15 2 5 -14 -9 -14 -9 -21 1 -31 6 -6 12 -16 12 -21 0 -13 -24 15
-42 48 -42 82 -58 135 -40 135 5 0 17 -27 28 -60z m-81 21 c3 -5 1 -12 -5 -16
-5 -3 -10 1 -10 9 0 18 6 21 15 7z m169 -37 c9 -24 7 -28 -9 -14 -17 14 -20
30 -6 30 5 0 12 -7 15 -16z m-440 -62 c-4 -12 -10 -22 -15 -22 -11 0 -12 44
-2 53 12 12 23 -8 17 -31z m16 -58 c0 -8 -4 -14 -10 -14 -5 0 -10 9 -10 21 0
11 5 17 10 14 6 -3 10 -13 10 -21z m7 -76 c-3 -7 -5 -2 -5 12 0 14 2 19 5 13
2 -7 2 -19 0 -25z m13 -146 c0 -7 -4 -10 -10 -7 -5 3 -10 16 -10 28 0 18 2 19
10 7 5 -8 10 -21 10 -28z m150 18 c0 -5 -4 -10 -10 -10 -5 0 -10 5 -10 10 0 6
5 10 10 10 6 0 10 -4 10 -10z m20 -111 c0 -5 -4 -9 -10 -9 -5 0 -10 7 -10 16
0 8 5 12 10 9 6 -3 10 -10 10 -16z m50 -20 c0 -6 -4 -7 -10 -4 -5 3 -10 11
-10 16 0 6 5 7 10 4 6 -3 10 -11 10 -16z m-123 -41 c-3 -8 -6 -5 -6 6 -1 11 2
17 5 13 3 -3 4 -12 1 -19z m60 -700 c-3 -8 -6 -5 -6 6 -1 11 2 17 5 13 3 -3 4
-12 1 -19z m44 -69 c9 -18 9 -19 -10 -7 -12 7 -21 19 -21 26 0 17 17 7 31 -19z
m39 -54 c0 -8 4 -15 9 -15 5 0 12 -7 15 -16 6 -15 4 -15 -11 -3 -32 25 -43 49
-23 49 6 0 10 -7 10 -15z m100 -414 c0 -11 -4 -10 -19 3 -11 10 -17 24 -14 32
4 12 8 11 19 -3 7 -10 14 -24 14 -32z m-70 -152 c0 -5 -4 -9 -10 -9 -5 0 -10
7 -10 16 0 8 5 12 10 9 6 -3 10 -10 10 -16z m60 -279 c0 -5 -2 -10 -4 -10 -3
0 -8 5 -11 10 -3 6 -1 10 4 10 6 0 11 -4 11 -10z m-70 -111 c0 -6 -4 -7 -10
-4 -5 3 -10 11 -10 16 0 6 5 7 10 4 6 -3 10 -11 10 -16z m-22 -37 c6 -18 -15
-14 -22 4 -4 10 -1 14 6 12 6 -2 14 -10 16 -16z m-158 -92 c0 -5 -4 -10 -10
-10 -5 0 -10 5 -10 10 0 6 5 10 10 10 6 0 10 -4 10 -10z m90 -175 c0 -8 -2
-15 -4 -15 -2 0 -6 7 -10 15 -3 8 -1 15 4 15 6 0 10 -7 10 -15z m-15 -101 c-4
-25 -1 -34 20 -50 14 -10 25 -27 25 -36 0 -10 7 -18 16 -18 11 0 14 -8 12 -32
-2 -25 -8 -34 -25 -36 -24 -4 -28 5 -24 63 1 29 1 29 -14 10 -31 -39 -30 -64
4 -94 35 -32 38 -41 14 -41 -10 0 -31 -9 -48 -20 -16 -11 -33 -20 -37 -20 -12
0 -10 38 2 45 6 3 10 12 10 18 0 7 -4 6 -10 -3 -11 -17 -13 -10 -12 45 1 16
-3 34 -7 40 -15 18 -23 73 -12 79 6 4 8 13 5 21 -4 8 1 18 10 21 9 3 16 17 16
30 0 13 8 33 17 43 16 20 17 19 30 -7 9 -16 12 -40 8 -58z m-135 46 c0 -5 -5
-10 -11 -10 -5 0 -7 5 -4 10 3 6 8 10 11 10 2 0 4 -4 4 -10z m27 -32 c-10 -5
-17 -16 -17 -23 0 -22 -27 -18 -33 5 -5 21 4 27 42 27 20 0 21 -1 8 -9z m190
-13 c-4 -8 -2 -17 4 -21 6 -3 8 -12 5 -20 -3 -8 -1 -14 4 -14 6 0 10 5 10 10
0 14 13 13 35 -4 12 -8 16 -19 12 -31 -6 -15 -10 -15 -24 -4 -13 11 -17 11
-20 2 -6 -17 -33 -16 -33 1 0 7 -7 19 -15 26 -12 10 -12 16 -4 26 6 8 9 21 5
29 -3 9 0 15 10 15 10 0 14 -6 11 -15z m-257 -130 c0 -14 -6 -25 -12 -26 -10
0 -10 -2 0 -6 6 -2 12 -17 11 -31 0 -15 -3 -21 -6 -14 -7 17 -23 15 -23 -3 0
-8 6 -15 14 -15 8 0 14 -9 13 -19 0 -11 -4 -18 -8 -15 -4 2 -10 -3 -13 -11 -4
-12 -10 -13 -24 -6 -26 14 -36 89 -17 112 11 12 12 18 3 27 -9 9 -8 12 5 12 9
0 17 5 17 10 0 6 9 10 20 10 15 0 20 -7 20 -25z m71 -42 c4 -43 3 -65 -3 -69
-8 -5 -10 2 -12 49 -1 15 2 27 6 27 4 0 8 -3 9 -7z m249 -132 c0 -20 -6 -30
-20 -34 -15 -4 -20 0 -20 14 0 20 19 48 33 49 4 0 7 -13 7 -29z m-340 -23 c0
-12 -28 -10 -35 2 -4 6 -4 19 0 28 6 16 8 15 21 -2 8 -11 14 -23 14 -28z m117
13 c6 -13 18 -28 27 -33 9 -5 13 -18 10 -33 -3 -18 0 -25 11 -25 8 0 15 -5 15
-11 0 -22 -53 2 -86 38 -29 31 -34 34 -40 19 -4 -10 -2 -22 5 -29 17 -17 13
-26 -9 -20 -11 3 -20 11 -20 18 0 7 -5 15 -11 17 -8 3 -6 10 6 21 9 10 15 24
12 31 -16 40 60 47 80 7z m43 9 c0 -5 -5 -10 -11 -10 -5 0 -7 5 -4 10 3 6 8
10 11 10 2 0 4 -4 4 -10z m-199 -40 c25 -14 24 -23 -6 -37 -24 -10 -25 -9 -25
18 0 32 3 34 31 19z m49 -60 c6 -11 8 -31 4 -46 l-7 -26 -23 27 c-19 22 -21
30 -11 46 15 24 24 24 37 -1z m50 -51 c0 -19 4 -28 11 -23 6 3 9 15 6 25 -3
13 0 19 10 19 12 0 14 -7 8 -32 -11 -51 -11 -57 0 -60 5 -2 12 11 15 27 7 39
21 18 16 -24 -3 -27 0 -31 20 -31 12 0 29 -6 36 -13 7 -7 22 -19 33 -26 17
-11 15 -11 -18 -6 -44 7 -76 -6 -37 -15 18 -4 25 -13 25 -29 0 -15 8 -27 20
-32 22 -8 15 -12 -30 -13 -38 -1 -89 49 -61 60 20 8 21 24 2 24 -9 0 -12 7 -9
20 6 23 -12 27 -21 4 -3 -8 -11 -12 -16 -9 -8 5 -7 11 0 20 13 16 4 39 -12 29
-6 -4 -8 1 -4 14 5 13 1 22 -10 26 -13 5 -15 9 -6 18 16 16 15 45 0 51 -8 3
-6 6 5 6 13 1 17 -7 17 -30z m130 -26 c0 -13 -33 -43 -48 -43 -12 0 -12 2 -1
17 11 13 11 17 2 20 -7 3 -13 13 -13 24 0 18 2 19 30 4 17 -9 30 -18 30 -22z
m-371 -37 c-9 -8 -10 -7 -5 7 3 10 7 24 7 30 1 7 3 4 6 -7 3 -10 -1 -23 -8
-30z m-12 -73 c-3 -10 -5 -2 -5 17 0 19 2 27 5 18 2 -10 2 -26 0 -35z m263
-28 c0 -8 -7 -15 -15 -15 -8 0 -15 -5 -15 -11 0 -5 -5 -7 -10 -4 -14 9 7 45
25 45 8 0 15 -7 15 -15z m-354 -30 c-9 -9 -16 -13 -16 -8 0 12 22 34 28 28 2
-2 -3 -11 -12 -20z m24 -35 c0 -5 -4 -10 -10 -10 -5 0 -10 5 -10 10 0 6 5 10
10 10 6 0 10 -4 10 -10z m165 -40 c3 -5 1 -10 -4 -10 -6 0 -11 5 -11 10 0 6 2
10 4 10 3 0 8 -4 11 -10z m145 -26 c0 -19 -28 -30 -43 -15 -8 8 -6 15 8 25 22
16 35 12 35 -10z m-410 -119 c0 -8 -4 -15 -10 -15 -5 0 -10 7 -10 15 0 8 5 15
10 15 6 0 10 -7 10 -15z m577 -17 c-3 -8 -6 -5 -6 6 -1 11 2 17 5 13 3 -3 4
-12 1 -19z m-511 -89 c10 -17 -13 -36 -27 -22 -12 12 -4 33 11 33 5 0 12 -5
16 -11z m564 -80 c0 -17 -4 -28 -10 -24 -5 3 -10 17 -10 31 0 13 5 24 10 24 6
0 10 -14 10 -31z m410 -69 c0 -22 -3 -40 -7 -40 -7 0 -9 48 -5 73 5 22 12 2
12 -33z m4 -125 c4 -32 3 -45 -3 -35 -5 8 -10 29 -11 45 -5 67 5 61 14 -10z
m-984 -195 c0 -5 -4 -10 -10 -10 -5 0 -10 5 -10 10 0 6 5 10 10 10 6 0 10 -4
10 -10z m-90 -20 c0 -5 -7 -10 -15 -10 -8 0 -15 5 -15 10 0 6 7 10 15 10 8 0
15 -4 15 -10z m13 -27 c-7 -2 -19 -2 -25 0 -7 3 -2 5 12 5 14 0 19 -2 13 -5z
m5 -117 c3 -12 -1 -17 -10 -14 -7 3 -15 13 -16 22 -3 12 1 17 10 14 7 -3 15
-13 16 -22z m-38 -29 c0 -5 -4 -5 -10 -2 -5 3 -10 14 -10 23 0 15 2 15 10 2 5
-8 10 -19 10 -23z m30 -17 c0 -5 -2 -10 -4 -10 -3 0 -8 5 -11 10 -3 6 -1 10 4
10 6 0 11 -4 11 -10z m-52 -80 c7 -20 7 -32 1 -36 -12 -7 -11 -7 -26 28 -11
25 -8 38 8 38 4 0 12 -13 17 -30z m-27 -60 c0 9 5 6 12 -8 8 -18 8 -25 -3 -32
-15 -10 -22 -120 -7 -120 6 0 8 -2 5 -5 -11 -11 -53 17 -65 42 -17 36 -16 49
4 81 29 45 37 51 45 38 5 -7 8 -6 9 4z m-2784 -72 c-3 -7 -5 -2 -5 12 0 14 2
19 5 13 2 -7 2 -19 0 -25z m2814 -21 c-10 -9 -11 -8 -5 6 3 10 9 15 12 12 3
-3 0 -11 -7 -18z m-124 -99 c-3 -8 -6 -5 -6 6 -1 11 2 17 5 13 3 -3 4 -12 1
-19z m-1161 -105 c-11 -11 -24 9 -18 29 l5 22 9 -24 c5 -12 6 -25 4 -27z
m2404 27 c0 -5 -4 -10 -10 -10 -5 0 -10 5 -10 10 0 6 5 10 10 10 6 0 10 -4 10
-10z m-3697 -7 c-7 -2 -19 -2 -25 0 -7 3 -2 5 12 5 14 0 19 -2 13 -5z m2497
-13 c26 -16 4 -21 -26 -5 -23 12 -25 15 -9 15 11 0 27 -4 35 -10z m-1310 -41
c0 -5 -7 -9 -15 -9 -15 0 -20 12 -9 23 8 8 24 -1 24 -14z m2393 -33 c-10 -13
-19 -23 -21 -21 -7 6 19 45 29 45 5 0 2 -11 -8 -24z m-1083 -1 c16 -19 0 -19
-26 0 -16 12 -16 14 -3 15 9 0 22 -7 29 -15z m-1797 -30 c-7 -21 -13 -19 -13
6 0 11 4 18 10 14 5 -3 7 -12 3 -20z m-673 -5 c0 -5 -5 -10 -11 -10 -5 0 -7 5
-4 10 3 6 8 10 11 10 2 0 4 -4 4 -10z m317 -32 c-3 -8 -6 -5 -6 6 -1 11 2 17
5 13 3 -3 4 -12 1 -19z m2150 0 c4 -7 6 -21 4 -32 -2 -12 1 -16 9 -11 17 11
30 -14 30 -57 0 -26 -4 -38 -14 -38 -17 0 -28 -24 -20 -45 8 -19 5 -19 -37 2
-19 10 -41 17 -49 18 -10 0 -14 9 -12 27 2 19 -3 28 -18 33 -21 7 -28 35 -9
35 6 0 17 6 25 14 8 9 27 13 45 11 36 -5 36 18 0 23 -18 3 -20 6 -10 18 14 17
45 18 56 2z m-1540 -34 c-9 -9 -28 6 -21 18 4 6 10 6 17 -1 6 -6 8 -13 4 -17z
m-247 -9 c0 -8 -4 -15 -10 -15 -5 0 -10 7 -10 15 0 8 5 15 10 15 6 0 10 -7 10
-15z m330 -5 c0 -5 -5 -10 -11 -10 -5 0 -7 5 -4 10 3 6 8 10 11 10 2 0 4 -4 4
-10z m-86 -35 c-19 -29 -29 -27 -19 4 3 12 13 21 21 21 12 0 12 -4 -2 -25z
m-181 -65 c-3 -11 -9 -20 -14 -20 -10 0 -12 24 -2 33 13 13 21 7 16 -13z m137
-20 c0 -5 -4 -10 -10 -10 -5 0 -10 5 -10 10 0 6 5 10 10 10 6 0 10 -4 10 -10z
m1620 6 c0 -3 -4 -8 -10 -11 -5 -3 -10 -1 -10 4 0 6 5 11 10 11 6 0 10 -2 10
-4z m-1850 -39 c0 -18 -2 -19 -10 -7 -13 20 -13 43 0 35 6 -3 10 -16 10 -28z
m1775 -43 c48 -8 98 -41 91 -59 -2 -7 -1 -16 4 -21 4 -5 11 -26 14 -46 6 -31
4 -38 -9 -38 -8 0 -15 -7 -15 -15 0 -8 -4 -15 -10 -15 -5 0 -10 -7 -10 -15 0
-8 -4 -15 -10 -15 -5 0 -10 4 -10 9 0 6 5 13 10 16 6 3 10 19 10 36 0 16 4 29
9 29 16 0 21 30 9 55 -6 14 -17 25 -25 25 -15 0 -53 -35 -53 -50 0 -17 28 -11
39 8 18 30 13 -38 -5 -73 -8 -16 -13 -39 -10 -51 5 -17 -1 -28 -23 -43 -16
-12 -34 -21 -41 -21 -6 0 -8 -4 -5 -10 4 -6 -6 -10 -23 -10 -22 0 -39 10 -61
35 -17 20 -31 40 -31 45 0 14 17 12 24 -2 3 -7 5 9 4 35 -1 31 3 51 11 57 9 5
15 33 17 76 1 38 3 71 3 73 1 2 13 1 29 -2 15 -3 45 -8 67 -13z m-1765 -8 c0
-3 -4 -8 -10 -11 -5 -3 -10 -1 -10 4 0 6 5 11 10 11 6 0 10 -2 10 -4z m170
-41 c0 -8 -7 -15 -16 -15 -14 0 -14 3 -4 15 7 8 14 15 16 15 2 0 4 -7 4 -15z
m2556 -26 c-9 -18 -16 -40 -16 -51 0 -10 -4 -18 -9 -18 -4 0 -8 8 -7 18 2 21
38 93 44 87 2 -2 -3 -18 -12 -36z m-2651 1 c3 -5 1 -10 -4 -10 -6 0 -11 5 -11
10 0 6 2 10 4 10 3 0 8 -4 11 -10z m392 -292 c-3 -8 -6 -5 -6 6 -1 11 2 17 5
13 3 -3 4 -12 1 -19z"/>
<path d="M11630 7830 c0 -5 5 -10 11 -10 5 0 7 5 4 10 -3 6 -8 10 -11 10 -2 0
-4 -4 -4 -10z"/>
<path d="M11985 7590 c3 -5 8 -10 11 -10 2 0 4 5 4 10 0 6 -5 10 -11 10 -5 0
-7 -4 -4 -10z"/>
<path d="M11746 7183 c-8 -20 1 -33 25 -33 24 0 24 5 0 29 -17 17 -20 17 -25
4z"/>
<path d="M11655 6550 c3 -5 8 -10 11 -10 2 0 4 5 4 10 0 6 -5 10 -11 10 -5 0
-7 -4 -4 -10z"/>
<path d="M12016 6514 c-3 -8 -10 -12 -16 -9 -5 3 -10 -1 -10 -9 0 -15 37 -32
47 -22 4 3 1 6 -6 6 -7 0 -9 9 -5 25 7 27 0 34 -10 9z"/>
<path d="M11612 6460 c0 -14 2 -19 5 -12 2 6 2 18 0 25 -3 6 -5 1 -5 -13z"/>
<path d="M11790 6436 c0 -8 5 -18 10 -21 6 -3 10 1 10 9 0 8 -4 18 -10 21 -5
3 -10 -1 -10 -9z"/>
<path d="M11705 6390 c-3 -5 -1 -10 4 -10 6 0 11 5 11 10 0 6 -2 10 -4 10 -3
0 -8 -4 -11 -10z"/>
<path d="M11980 6264 c0 -8 5 -12 10 -9 6 3 10 10 10 16 0 5 -4 9 -10 9 -5 0
-10 -7 -10 -16z"/>
<path d="M11755 6171 c-3 -5 -1 -12 5 -16 5 -3 10 1 10 9 0 18 -6 21 -15 7z"/>
<path d="M11840 6075 c0 -9 5 -15 11 -13 6 2 11 8 11 13 0 5 -5 11 -11 13 -6
2 -11 -4 -11 -13z"/>
<path d="M11650 6068 c0 -7 4 -19 9 -27 11 -17 23 1 15 23 -7 19 -24 21 -24 4z"/>
<path d="M11495 2810 c-3 -5 1 -10 10 -10 9 0 13 5 10 10 -3 6 -8 10 -10 10
-2 0 -7 -4 -10 -10z"/>
<path d="M11600 2694 c0 -8 5 -12 10 -9 6 3 10 10 10 16 0 5 -4 9 -10 9 -5 0
-10 -7 -10 -16z"/>
<path d="M11045 1110 c-7 -12 2 -30 16 -30 12 0 12 27 0 35 -5 3 -12 1 -16 -5z"/>
<path d="M10905 6350 c3 -5 8 -10 11 -10 2 0 4 5 4 10 0 6 -5 10 -11 10 -5 0
-7 -4 -4 -10z"/>
<path d="M10920 6264 c0 -8 5 -12 10 -9 6 4 8 11 5 16 -9 14 -15 11 -15 -7z"/>
<path d="M10906 6228 c3 -4 14 -8 25 -8 12 0 19 -7 19 -20 0 -14 -7 -20 -21
-20 -11 0 -17 -4 -14 -10 3 -5 1 -10 -6 -10 -7 0 -9 -3 -6 -6 4 -4 13 -2 20 4
8 7 17 9 20 5 4 -3 7 0 7 8 0 12 2 11 10 -1 8 -11 9 -7 4 15 -4 17 -10 34 -15
39 -11 12 -50 16 -43 4z"/>
<path d="M10915 6200 c-3 -5 -1 -10 4 -10 6 0 11 5 11 10 0 6 -2 10 -4 10 -3
0 -8 -4 -11 -10z"/>
<path d="M10940 6136 c0 -10 4 -15 9 -12 5 4 12 0 14 -6 4 -8 6 -9 6 -2 1 6
-6 17 -14 24 -12 10 -15 9 -15 -4z"/>
<path d="M5027 5803 c-11 -10 -8 -43 3 -43 6 0 10 11 10 25 0 26 -2 29 -13 18z"/>
<path d="M4980 5731 c0 -10 -3 -21 -7 -25 -5 -4 -9 -17 -10 -29 -1 -25 -10
-81 -23 -152 -5 -27 -14 -104 -21 -170 -6 -66 -17 -140 -25 -165 -7 -25 -15
-72 -17 -106 -2 -34 -7 -65 -10 -70 -3 -5 -11 -48 -17 -94 -6 -47 -16 -90 -21
-96 -5 -6 -11 -24 -13 -40 -4 -34 -54 -242 -63 -264 -4 -8 -8 -28 -10 -45 -1
-16 -8 -40 -15 -52 -6 -13 -9 -26 -6 -29 4 -3 2 -20 -4 -37 -25 -83 -75 -273
-84 -324 -4 -18 -10 -33 -15 -33 -5 0 -9 -6 -9 -13 0 -8 -8 -29 -17 -47 -9
-19 -17 -50 -19 -69 -3 -50 -2 -48 -20 -66 -9 -9 -18 -40 -21 -73 -3 -31 -11
-60 -19 -65 -8 -4 -13 -27 -13 -61 0 -30 -5 -64 -11 -75 -6 -11 -8 -33 -4 -48
4 -21 3 -24 -5 -13 -8 12 -11 12 -17 -5 -4 -10 -3 -20 2 -22 15 -5 0 -243 -15
-243 -4 0 -6 -23 -5 -51 3 -58 -3 -82 -19 -72 -10 6 -6 -47 9 -96 5 -18 4 -22
-5 -16 -10 6 -12 0 -6 -23 3 -18 2 -33 -4 -37 -12 -7 -15 -48 -4 -59 4 -4 6
-28 4 -54 -1 -26 0 -44 4 -41 3 4 8 29 10 55 4 51 12 115 44 349 18 127 31
197 76 410 44 210 85 403 89 425 33 174 124 474 149 491 6 4 7 16 4 28 -3 12
-2 19 3 16 4 -3 11 2 14 11 9 23 8 26 -6 18 -10 -6 -10 -4 0 7 6 7 12 22 13
34 0 11 3 15 5 8 3 -7 12 -9 20 -6 7 3 11 9 8 14 -3 5 1 9 8 9 9 0 9 3 -2 10
-13 9 -13 11 0 21 11 8 12 12 3 16 -18 7 -16 25 1 21 8 -2 15 2 16 7 1 6 7 13
14 17 8 4 11 18 8 33 -2 14 0 25 6 25 6 0 14 16 18 35 3 19 14 40 23 45 14 8
14 11 1 20 -28 18 -39 10 -46 -35 -3 -25 -9 -44 -11 -41 -3 3 -2 26 2 52 6 44
8 46 35 41 23 -5 29 -2 32 17 5 26 -17 30 -32 6 -5 -8 -12 -11 -17 -7 -4 5 -3
11 3 15 6 4 13 15 17 25 3 9 11 17 17 17 6 0 8 -4 5 -10 -7 -11 8 -14 18 -4 8
9 -4 35 -13 29 -5 -3 -7 12 -5 32 1 20 8 39 14 41 6 2 11 10 11 18 0 24 32
116 49 143 12 18 15 55 14 165 -1 318 -2 336 -18 336 -8 0 -15 5 -15 10 0 6 7
10 15 10 28 0 15 15 -15 17 -23 2 -30 -2 -30 -16z m-120 -981 c0 -5 -5 -10
-11 -10 -5 0 -7 5 -4 10 3 6 8 10 11 10 2 0 4 -4 4 -10z m-21 -122 c1 -5 -3
-8 -7 -8 -4 0 -8 12 -9 28 -1 23 -1 24 7 7 5 -11 9 -23 9 -27z m-402 -1590
c-3 -8 -6 -5 -6 6 -1 11 2 17 5 13 3 -3 4 -12 1 -19z"/>
<path d="M4041 5427 c-12 -15 -5 -27 16 -27 7 0 13 9 13 20 0 23 -13 26 -29 7z"/>
<path d="M4970 5015 c0 -8 4 -15 10 -15 5 0 7 7 4 15 -4 8 -8 15 -10 15 -2 0
-4 -7 -4 -15z"/>
<path d="M4831 4564 c0 -11 3 -14 6 -6 3 7 2 16 -1 19 -3 4 -6 -2 -5 -13z"/>
<path d="M4390 3990 c0 -5 5 -10 10 -10 6 0 10 5 10 10 0 6 -4 10 -10 10 -5 0
-10 -4 -10 -10z"/>
<path d="M4256 3961 c-4 -7 -5 -15 -2 -18 9 -9 19 4 14 18 -4 11 -6 11 -12 0z"/>
<path d="M4206 3926 c-13 -21 -14 -29 -4 -46 17 -26 31 -26 23 0 -4 12 -1 28
6 36 8 10 9 18 2 25 -7 7 -15 2 -27 -15z"/>
<path d="M4140 3830 c0 -5 5 -10 11 -10 5 0 7 5 4 10 -3 6 -8 10 -11 10 -2 0
-4 -4 -4 -10z"/>
<path d="M4166 3795 c-3 -8 -1 -15 4 -15 6 0 10 7 10 15 0 8 -2 15 -4 15 -2 0
-6 -7 -10 -15z"/>
<path d="M4178 3724 c-5 -4 -8 -16 -8 -26 0 -11 -4 -17 -8 -14 -5 3 -8 -12 -8
-32 0 -20 -3 -48 -8 -61 -6 -17 -5 -22 5 -19 18 6 40 77 37 121 -2 22 -6 35
-10 31z"/>
<path d="M4205 3700 c3 -5 11 -10 16 -10 6 0 7 5 4 10 -3 6 -11 10 -16 10 -6
0 -7 -4 -4 -10z"/>
<path d="M4270 3700 c0 -5 5 -10 10 -10 6 0 10 5 10 10 0 6 -4 10 -10 10 -5 0
-10 -4 -10 -10z"/>
<path d="M4206 3610 c2 -25 4 -52 6 -59 2 -7 -3 -16 -11 -18 -9 -4 -11 0 -6
16 8 27 -10 27 -29 -1 -15 -22 -13 -38 5 -38 6 0 8 4 5 9 -4 5 5 4 18 -2 16
-8 27 -23 31 -46 5 -27 9 -31 17 -20 8 12 9 12 6 0 -2 -8 -14 -21 -26 -29 -21
-14 -22 -13 -18 27 5 65 -20 52 -29 -14 -3 -30 -11 -57 -16 -60 -5 -4 -3 -12
5 -20 8 -8 12 -24 9 -35 -3 -12 0 -20 7 -20 7 0 9 -8 5 -20 -8 -24 2 -60 17
-60 6 0 8 9 5 20 -3 11 -1 20 4 20 5 0 9 11 9 25 0 14 5 25 11 25 8 0 8 4 -1
15 -16 19 -3 37 23 33 16 -2 23 3 25 19 3 17 -1 20 -17 16 -15 -4 -21 -1 -21
11 0 9 6 16 14 16 8 0 19 15 25 33 9 27 8 40 -4 63 -9 19 -13 41 -9 63 6 30 5
33 -15 26 -29 -9 -28 18 2 38 22 15 21 15 -13 14 l-36 -2 2 -45z m58 -111 c-8
-13 -24 -1 -24 18 0 13 3 13 15 3 8 -7 12 -16 9 -21z"/>
<path d="M4292 3608 c-16 -16 -15 -28 2 -28 16 0 29 27 17 34 -4 3 -13 0 -19
-6z"/>
<path d="M4180 3189 c0 -5 5 -7 10 -4 6 3 10 8 10 11 0 2 -4 4 -10 4 -5 0 -10
-5 -10 -11z"/>
<path d="M4291 3074 c0 -11 3 -14 6 -6 3 7 2 16 -1 19 -3 4 -6 -2 -5 -13z"/>
<path d="M4180 2970 c13 -11 25 -20 28 -20 3 0 -3 9 -13 20 -10 11 -23 20 -28
20 -6 0 0 -9 13 -20z"/>
<path d="M4290 2900 c0 -11 5 -20 10 -20 6 0 10 9 10 20 0 11 -4 20 -10 20 -5
0 -10 -9 -10 -20z"/>
<path d="M4170 2479 c0 -5 5 -7 10 -4 6 3 10 8 10 11 0 2 -4 4 -10 4 -5 0 -10
-5 -10 -11z"/>
<path d="M11590 2142 c0 -13 6 -22 14 -22 8 0 20 -16 27 -35 7 -19 16 -35 20
-35 16 0 15 28 -2 60 -10 19 -18 31 -19 26 0 -5 -9 -1 -20 9 -19 18 -20 17
-20 -3z"/>
<path d="M11434 2126 c-8 -22 -2 -27 16 -16 12 7 12 12 3 21 -10 10 -14 9 -19
-5z"/>
<path d="M11388 2073 c-8 -10 -4 -13 21 -13 19 0 31 5 31 13 0 7 -9 13 -21 13
-11 0 -25 -6 -31 -13z"/>
<path d="M11470 2021 c0 -11 26 -22 34 -14 12 12 5 23 -14 23 -11 0 -20 -4
-20 -9z"/>
<path d="M11405 1971 c-3 -6 2 -14 10 -19 9 -4 17 -18 18 -29 0 -12 4 -20 8
-17 4 2 12 -4 18 -13 5 -10 13 -15 17 -10 4 4 0 15 -9 24 -8 10 -20 30 -26 46
-11 27 -25 35 -36 18z"/>
<path d="M11520 1970 c0 -5 5 -10 10 -10 6 0 10 5 10 10 0 6 -4 10 -10 10 -5
0 -10 -4 -10 -10z"/>
<path d="M4724 1775 c2 -39 -1 -76 -6 -82 -6 -7 -12 -65 -13 -128 -2 -64 -5
-119 -9 -122 -3 -4 -6 -15 -6 -26 0 -13 -5 -17 -15 -14 -9 4 -18 -5 -26 -28
-7 -18 -20 -36 -30 -38 -20 -5 -45 -41 -54 -77 -4 -17 0 -32 13 -45 11 -13 22
-44 26 -80 4 -33 11 -87 16 -120 5 -46 4 -63 -6 -71 -18 -15 -18 -34 1 -34 8
0 15 -7 15 -15 0 -8 5 -15 10 -15 22 0 8 -19 -32 -43 l-43 -26 43 6 c23 3 42
2 42 -3 0 -5 -18 -22 -40 -38 -39 -29 -50 -46 -30 -46 19 0 10 -38 -12 -54
-13 -9 -18 -15 -12 -12 7 3 17 -1 24 -9 10 -12 9 -16 -3 -21 -11 -4 -15 -18
-13 -54 2 -27 0 -51 -4 -52 -13 -5 -22 -48 -10 -48 7 0 3 -13 -9 -33 -17 -27
-19 -41 -12 -82 8 -50 8 -50 19 -22 7 16 12 35 12 43 0 9 7 14 18 12 14 -3 17
-16 20 -86 l3 -83 29 -6 c37 -7 39 -23 4 -23 -16 0 -23 -4 -18 -11 4 -7 24 -9
51 -6 56 6 108 53 118 106 7 38 30 81 44 81 4 0 11 -27 15 -61 3 -33 8 -65 11
-69 13 -20 33 5 48 58 42 144 52 252 51 532 -1 269 -10 454 -31 610 -8 63 -16
130 -17 148 -1 21 -14 45 -38 70 -19 20 -49 58 -67 85 -18 26 -35 47 -39 47
-4 0 -15 12 -25 28 -17 27 -17 27 -13 -43z m33 -17 c-3 -8 -6 -5 -6 6 -1 11 2
17 5 13 3 -3 4 -12 1 -19z m93 -251 c-4 -76 -11 -141 -15 -145 -4 -4 -5 22 -1
57 3 35 6 105 6 154 0 53 4 87 9 82 5 -6 5 -70 1 -148z m-13 -314 c-3 -10 -5
-2 -5 17 0 19 2 27 5 18 2 -10 2 -26 0 -35z m-10 -175 c-3 -7 -5 -2 -5 12 0
14 2 19 5 13 2 -7 2 -19 0 -25z m-7 -488 c0 -5 -4 -10 -10 -10 -5 0 -10 5 -10
10 0 6 5 10 10 10 6 0 10 -4 10 -10z m-170 -110 c0 -5 -4 -10 -10 -10 -5 0
-10 5 -10 10 0 6 5 10 10 10 6 0 10 -4 10 -10z"/>
<path d="M11690 1770 c0 -5 5 -10 10 -10 6 0 10 5 10 10 0 6 -4 10 -10 10 -5
0 -10 -4 -10 -10z"/>
<path d="M11660 1575 c-10 -12 -10 -15 4 -15 9 0 16 7 16 15 0 8 -2 15 -4 15
-2 0 -9 -7 -16 -15z"/>
<path d="M4264 1517 c-10 -27 -25 -53 -31 -59 -7 -6 -13 -22 -13 -35 0 -17 -7
-27 -21 -30 -12 -4 -22 -17 -26 -35 -4 -19 -15 -33 -29 -39 -13 -4 -24 -13
-24 -19 0 -6 -4 -8 -10 -5 -6 3 -10 -4 -10 -17 0 -13 -7 -32 -15 -42 -21 -28
-19 -62 6 -87 16 -16 18 -23 8 -35 -9 -11 -9 -18 -1 -26 20 -20 14 -38 -13
-36 -18 2 -26 10 -31 31 -3 16 -8 26 -11 24 -11 -12 -13 -149 -3 -162 9 -10 4
-20 -19 -43 -19 -17 -31 -39 -30 -53 0 -22 1 -23 9 -4 5 13 8 -9 8 -60 0 -44
3 -89 7 -100 17 -49 25 -65 35 -65 5 0 10 -9 10 -19 0 -11 5 -23 11 -26 6 -4
8 -14 5 -22 -3 -8 0 -26 7 -41 8 -15 15 -43 16 -62 4 -63 35 -165 51 -165 20
0 26 -12 35 -62 5 -30 3 -43 -5 -43 -15 0 -41 -26 -33 -34 4 -3 -8 -6 -26 -6
-25 0 -32 -4 -28 -14 4 -9 -1 -17 -11 -20 -9 -3 19 -3 63 1 118 8 191 8 271
-1 85 -10 112 -5 153 30 33 28 39 44 17 44 -22 0 -62 37 -80 74 -9 19 -28 97
-43 173 -22 116 -26 168 -27 324 l-1 187 -35 -5 c-19 -3 -53 -12 -75 -20 -60
-22 -108 -32 -117 -27 -5 3 -6 39 -2 80 6 71 9 78 48 117 42 44 96 73 119 64
13 -5 31 -67 43 -144 6 -42 24 -61 24 -25 -1 42 -29 182 -49 239 -11 34 -25
92 -31 128 -5 36 -14 94 -20 129 -12 82 -18 95 -39 93 -12 -1 -25 -18 -37 -50z
m-145 -324 c2 -2 -5 -3 -17 -3 -14 0 -22 6 -22 16 0 14 3 15 18 3 9 -7 19 -15
21 -16z"/>
<path d="M5480 1418 c0 -39 -18 -143 -32 -183 -5 -16 -23 -93 -39 -170 -15
-77 -35 -169 -43 -205 -13 -56 -31 -153 -67 -360 -4 -25 -14 -74 -22 -110 -11
-46 -12 -67 -4 -72 8 -5 6 -12 -5 -25 -9 -10 -19 -46 -22 -83 -6 -57 -5 -63 7
-48 8 10 18 14 22 10 4 -4 5 7 1 23 -11 46 -8 68 9 77 17 10 21 48 5 48 -5 0
-10 8 -10 19 0 13 9 20 30 24 21 5 28 11 24 22 -3 8 -12 15 -20 15 -8 0 -14 5
-14 10 0 19 30 70 41 70 6 0 8 4 4 10 -3 5 -2 17 4 27 5 10 17 35 27 55 19 40
39 41 31 2 -5 -26 5 -31 20 -11 16 20 25 67 24 138 0 51 4 71 19 86 11 12 15
25 10 33 -9 14 -2 40 10 40 4 0 11 -10 15 -22 6 -21 8 -19 20 17 13 44 9 77
-7 53 -8 -10 -9 -9 -5 3 3 9 0 22 -6 28 -8 8 -8 14 1 23 9 9 12 7 12 -10 0
-20 3 -21 20 -12 11 6 20 18 20 26 0 9 -9 18 -20 21 -11 3 -20 12 -20 21 0 12
3 13 12 4 18 -18 28 -15 28 8 0 11 5 20 10 20 6 0 10 18 10 40 0 28 4 40 14
40 8 0 17 14 21 33 4 17 12 38 17 44 6 7 7 29 4 48 -4 20 -3 35 3 35 5 0 14
14 20 32 6 17 14 28 18 25 8 -8 35 12 29 22 -3 4 15 5 40 4 26 -2 44 2 44 8 0
17 41 -1 74 -32 17 -16 37 -29 44 -29 6 0 15 0 20 0 4 0 7 3 7 8 0 4 6 16 13
27 12 18 12 16 7 -18 -5 -32 -2 -41 21 -62 34 -31 38 -31 63 2 l21 26 39 -44
c22 -24 38 -46 35 -50 -3 -6 19 -19 31 -19 2 0 7 16 11 35 7 41 13 43 37 14
15 -17 21 -18 33 -8 8 6 12 20 9 30 -4 11 2 27 14 41 18 18 21 19 21 5 0 -10
11 -22 24 -27 13 -5 27 -14 31 -19 10 -18 25 -12 25 9 0 23 25 27 34 5 3 -8
12 -15 21 -15 10 0 15 -10 15 -27 0 -16 10 -39 21 -53 l20 -25 -2 40 c-4 66 0
97 11 90 6 -4 9 -14 8 -23 -2 -10 7 -21 20 -27 12 -5 22 -13 22 -17 0 -17 35
-38 65 -38 18 0 36 -6 38 -12 3 -8 6 -6 6 5 1 9 8 17 16 17 9 0 15 9 15 23 0
13 6 32 14 42 12 16 16 17 30 6 9 -7 16 -24 16 -37 0 -13 4 -24 10 -24 5 0 18
-10 29 -22 18 -19 21 -19 27 -4 4 9 4 20 0 23 -3 4 1 14 10 24 15 17 18 16 61
-7 55 -29 56 -29 48 -4 -4 13 -1 22 9 26 9 3 16 12 16 20 0 8 5 14 11 14 6 0
8 -8 5 -17 -3 -10 -1 -25 4 -33 8 -12 11 -12 27 2 24 21 60 31 68 18 3 -5 13
-10 21 -10 22 0 13 34 -11 42 -15 4 -12 6 12 7 17 1 35 -4 38 -9 3 -5 16 -11
28 -11 17 -1 18 -2 4 -6 -9 -2 -15 -9 -12 -14 4 -5 1 -9 -6 -9 -18 0 -2 -77
22 -112 11 -15 25 -26 30 -23 12 8 12 45 -1 45 -5 0 -10 7 -10 15 0 8 5 15 11
15 6 0 9 9 6 20 -3 13 0 20 9 20 8 0 14 7 14 15 0 8 7 15 15 15 8 0 15 -4 15
-10 0 -21 20 -9 21 13 1 15 4 11 10 -13 4 -19 6 -40 4 -47 -2 -7 0 -15 5 -18
10 -6 16 14 23 73 2 18 -1 32 -7 32 -6 0 -54 5 -106 10 -52 5 -133 11 -180 15
-47 3 -114 10 -150 15 -36 5 -96 12 -135 15 -325 25 -438 35 -458 40 -12 2
-128 14 -257 25 -129 11 -301 32 -382 45 -81 14 -150 25 -153 25 -3 0 -5 -14
-5 -32z m80 -358 c0 -11 -6 -20 -14 -20 -9 0 -12 7 -9 20 3 11 9 20 14 20 5 0
9 -9 9 -20z m-110 -270 c-6 -23 -12 -40 -14 -39 -1 2 0 33 2 69 4 55 6 61 14
38 6 -17 5 -41 -2 -68z m-10 -115 c0 -27 -36 -60 -44 -39 -3 8 -1 14 4 14 6 0
10 19 10 43 1 39 2 41 15 23 8 -11 15 -29 15 -41z"/>
<path d="M7360 1241 l25 -8 -25 -5 c-17 -4 -10 -6 20 -6 32 -1 41 1 30 8 -13
9 -13 10 0 10 8 0 26 -3 38 -7 35 -9 7 -23 -48 -23 -38 -1 -42 -3 -22 -11 13
-5 28 -7 32 -4 5 3 15 -4 23 -16 11 -15 21 -19 36 -14 23 7 27 21 9 28 -7 3
-3 6 9 6 16 1 21 -3 17 -14 -4 -8 -1 -15 5 -15 19 0 12 27 -11 43 l-23 16 30
1 c62 4 -16 18 -95 18 -49 0 -66 -3 -50 -7z"/>
<path d="M7566 1203 c2 -21 6 -53 9 -71 2 -19 0 -30 -6 -27 -5 4 -9 -1 -9 -9
0 -9 4 -16 10 -16 5 0 6 -14 3 -32 -9 -47 -2 -198 9 -228 14 -35 17 -69 8 -75
-19 -12 -40 17 -40 54 0 55 -10 83 -25 71 -16 -14 -75 -1 -75 16 0 8 9 14 20
14 28 0 26 38 -2 50 -13 5 -17 9 -9 9 11 1 11 4 1 16 -10 13 -10 19 4 33 18
21 21 42 6 42 -6 0 -15 12 -20 26 -13 34 -35 25 -35 -14 0 -16 -4 -28 -9 -25
-5 4 -6 -4 -3 -18 4 -13 7 -32 7 -41 0 -10 7 -18 16 -18 12 0 15 -9 13 -38 -2
-21 3 -53 10 -70 13 -31 15 -32 32 -16 17 15 19 15 30 -9 8 -18 8 -30 0 -45
-6 -11 -11 -29 -11 -40 0 -10 -6 -32 -14 -48 -8 -16 -17 -49 -20 -73 -10 -94
-27 -51 -30 77 -1 21 -7 34 -19 38 -12 4 -15 12 -11 30 4 17 2 24 -9 24 -21 0
-9 48 14 55 28 9 24 35 -5 35 -24 0 -33 -24 -39 -102 -1 -16 -5 -28 -9 -28 -3
0 -5 -36 -4 -79 2 -53 -2 -85 -11 -97 -15 -21 -17 -50 -3 -59 5 -3 15 5 22 19
17 38 35 33 30 -9 -2 -19 1 -42 7 -49 18 -22 -4 -29 -37 -12 -26 13 -31 13
-44 -1 -12 -11 -14 -23 -8 -44 5 -15 6 -38 3 -50 -5 -18 -3 -21 10 -16 11 4
17 1 17 -8 0 -8 -8 -15 -17 -16 -11 0 -13 -3 -5 -6 17 -7 15 -32 -3 -39 -16
-7 -21 -44 -5 -44 5 0 7 -7 3 -16 -3 -8 -12 -13 -19 -10 -13 5 -19 -6 -15 -28
6 -31 6 -114 0 -110 -10 6 -22 -53 -14 -66 4 -6 82 -10 211 -10 l205 0 -6 48
c-4 26 -11 72 -16 101 -10 62 -1 83 29 65 19 -12 31 -63 31 -136 1 -60 9 -78
32 -78 23 0 23 -1 3 67 -9 30 -14 63 -11 73 3 11 2 20 -2 22 -4 2 -16 53 -27
113 -12 61 -28 135 -37 165 -36 131 -55 301 -62 555 -7 222 -10 245 -35 245
-15 0 -17 -6 -14 -37z m-236 -943 c0 -5 -4 -10 -10 -10 -5 0 -10 5 -10 10 0 6
5 10 10 10 6 0 10 -4 10 -10z m-20 -80 c0 -5 -4 -10 -10 -10 -5 0 -10 5 -10
10 0 6 5 10 10 10 6 0 10 -4 10 -10z m15 -60 c3 -5 1 -10 -4 -10 -6 0 -11 5
-11 10 0 6 2 10 4 10 3 0 8 -4 11 -10z"/>
<path d="M7687 1220 c15 -6 21 -15 17 -25 -4 -9 1 -18 12 -22 15 -6 15 -7 -5
-15 -25 -9 -19 -30 7 -27 32 3 41 -1 36 -16 -4 -8 -2 -15 4 -15 19 0 20 62 2
80 -12 12 -15 22 -8 34 8 14 3 16 -39 15 -39 0 -44 -2 -26 -9z"/>
<path d="M7778 1213 c6 -2 18 -2 25 0 6 3 1 5 -13 5 -14 0 -19 -2 -12 -5z"/>
<path d="M7853 1210 c9 -6 14 -16 11 -22 -4 -6 0 -16 8 -22 27 -21 36 -47 25
-77 -8 -19 -8 -34 1 -51 l11 -23 7 23 c6 22 24 31 24 12 0 -5 5 -10 10 -10 6
0 10 7 10 15 0 8 -4 15 -9 15 -13 0 -44 86 -36 100 4 6 2 17 -5 25 -9 11 -7
12 9 8 12 -3 21 -14 21 -24 0 -10 5 -21 10 -24 6 -4 10 5 10 19 0 19 5 26 20
26 11 0 20 -5 20 -11 0 -5 -4 -7 -10 -4 -5 3 -10 -1 -10 -9 0 -22 5 -20 34 9
l25 25 -38 0 c-21 0 -67 3 -102 6 -50 4 -60 3 -46 -6z"/>
<path d="M7080 1191 c0 -25 6 -27 13 -6 4 8 2 17 -3 20 -6 4 -10 -3 -10 -14z"/>
<path d="M7535 1200 c3 -5 8 -10 11 -10 2 0 4 5 4 10 0 6 -5 10 -11 10 -5 0
-7 -4 -4 -10z"/>
<path d="M6518 1193 c7 -3 16 -2 19 1 4 3 -2 6 -13 5 -11 0 -14 -3 -6 -6z"/>
<path d="M6978 1189 c-17 -9 -36 -75 -25 -86 3 -3 13 10 21 28 8 20 15 27 15
17 1 -10 5 -18 10 -18 9 0 10 55 1 64 -3 2 -13 0 -22 -5z"/>
<path d="M4077 1126 c-4 -10 -1 -13 8 -9 8 3 12 9 9 14 -7 12 -11 11 -17 -5z"/>
<path d="M7802 1114 c-8 -17 -9 -31 -2 -42 5 -9 10 -15 10 -12 3 14 7 80 5 80
-1 0 -7 -12 -13 -26z"/>
<path d="M7011 1099 c0 -15 6 -40 14 -55 l15 -29 0 38 c0 20 -4 37 -9 37 -5 0
-12 8 -14 18 -3 11 -5 8 -6 -9z"/>
<path d="M7710 1105 c0 -8 5 -15 10 -15 6 0 10 7 10 15 0 8 -4 15 -10 15 -5 0
-10 -7 -10 -15z"/>
<path d="M7500 1086 c0 -8 5 -18 10 -21 6 -3 10 3 10 14 0 12 -4 21 -10 21 -5
0 -10 -6 -10 -14z"/>
<path d="M7720 1056 c0 -9 5 -16 10 -16 6 0 10 4 10 9 0 6 -4 13 -10 16 -5 3
-10 -1 -10 -9z"/>
<path d="M8317 1023 c-4 -3 -7 -11 -7 -17 0 -6 5 -5 12 2 6 6 9 14 7 17 -3 3
-9 2 -12 -2z"/>
<path d="M7050 978 c0 -7 5 -20 10 -28 8 -12 10 -9 10 13 0 15 -4 27 -10 27
-5 0 -10 -6 -10 -12z"/>
<path d="M8270 965 c0 -9 6 -12 15 -9 8 4 15 7 15 9 0 2 -7 5 -15 9 -9 3 -15
0 -15 -9z"/>
<path d="M8487 866 c3 -15 10 -29 15 -32 6 -4 7 2 3 17 -10 35 -23 45 -18 15z"/>
<path d="M6111 804 c0 -11 3 -14 6 -6 3 7 2 16 -1 19 -3 4 -6 -2 -5 -13z"/>
<path d="M7420 806 c0 -2 7 -7 16 -10 8 -3 12 -2 9 4 -6 10 -25 14 -25 6z"/>
<path d="M5511 784 c0 -11 3 -14 6 -6 3 7 2 16 -1 19 -3 4 -6 -2 -5 -13z"/>
<path d="M6108 742 c-4 -12 -2 -25 4 -28 15 -10 19 1 10 26 l-9 24 -5 -22z"/>
<path d="M5475 668 c-9 -30 -12 -107 -4 -119 12 -20 20 -6 25 42 3 24 7 46 10
50 6 10 -7 39 -17 39 -5 0 -11 -6 -14 -12z"/>
<path d="M5552 636 c-2 -15 -5 -16 -17 -6 -13 11 -15 8 -15 -14 0 -14 5 -26
10 -26 6 0 10 -8 10 -17 1 -17 1 -17 11 0 6 9 8 32 6 50 -2 17 -5 24 -5 13z"/>
<path d="M9090 625 c0 -8 5 -15 10 -15 6 0 10 7 10 15 0 8 -4 15 -10 15 -5 0
-10 -7 -10 -15z"/>
<path d="M6797 538 c-10 -71 -5 -93 21 -96 22 -3 23 -1 20 65 -2 53 -6 68 -19
71 -13 2 -18 -7 -22 -40z"/>
<path d="M9681 543 c-1 -6 -4 -20 -7 -30 -5 -17 -5 -17 6 0 6 10 9 23 6 30 -3
9 -5 9 -5 0z"/>
<path d="M7225 520 c-3 -5 3 -10 14 -10 12 0 21 5 21 10 0 6 -6 10 -14 10 -8
0 -18 -4 -21 -10z"/>
<path d="M9110 511 c0 -11 4 -22 9 -25 4 -3 6 6 3 19 -5 30 -12 33 -12 6z"/>
<path d="M8600 491 c0 -5 5 -13 10 -16 6 -3 10 -2 10 4 0 5 -4 13 -10 16 -5 3
-10 2 -10 -4z"/>
<path d="M9766 464 c-9 -24 -7 -84 3 -84 5 0 7 -8 4 -19 -2 -10 2 -24 9 -32 7
-8 18 -25 24 -39 10 -22 12 -20 12 27 1 29 -3 55 -9 58 -5 4 -9 21 -9 40 0 38
-8 65 -20 65 -4 0 -11 -7 -14 -16z"/>
<path d="M7246 461 c-8 -13 11 -61 24 -61 5 0 10 8 10 18 -1 23 -26 56 -34 43z"/>
<path d="M8920 430 c0 -5 7 -10 15 -10 8 0 15 5 15 10 0 6 -7 10 -15 10 -8 0
-15 -4 -15 -10z"/>
<path d="M5430 415 c0 -8 9 -15 20 -15 13 0 18 5 14 15 -4 8 -12 15 -20 15 -8
0 -14 -7 -14 -15z"/>
<path d="M6792 418 c-7 -7 -12 -24 -12 -38 0 -14 -5 -31 -12 -38 -8 -8 -8 -15
2 -27 20 -24 30 -18 30 18 0 18 5 38 10 43 6 6 7 20 3 33 -7 17 -11 19 -21 9z"/>
<path d="M6993 383 c-7 -15 -13 -37 -13 -50 0 -13 -4 -23 -9 -23 -5 0 -8 -11
-7 -25 1 -17 9 -26 26 -31 l25 -6 -25 -10 -25 -10 30 -9 c36 -10 47 4 33 40
-6 17 -6 27 1 29 22 7 11 30 -11 26 l-23 -5 23 10 c25 12 26 16 11 60 -13 38
-20 39 -36 4z"/>
<path d="M7235 377 c5 -18 2 -28 -12 -35 -23 -13 -14 -23 15 -15 15 3 22 13
22 29 0 13 0 27 1 32 0 4 -7 8 -16 10 -12 3 -14 -2 -10 -21z"/>
<path d="M8920 386 c0 -8 5 -18 10 -21 6 -3 10 3 10 14 0 12 -4 21 -10 21 -5
0 -10 -6 -10 -14z"/>
<path d="M6887 315 c3 -8 9 -12 14 -9 12 7 11 11 -5 17 -10 4 -13 1 -9 -8z"/>
<path d="M8850 318 c1 -7 7 -31 15 -53 8 -22 15 -59 15 -82 0 -23 3 -48 6 -57
7 -19 33 -21 35 -3 1 6 3 23 4 37 2 14 7 39 13 57 11 34 6 73 -9 73 -10 0 -13
-20 -10 -60 1 -19 -4 -14 -19 19 -11 24 -20 52 -20 62 0 10 -7 19 -15 19 -8 0
-15 -6 -15 -12z"/>
<path d="M7240 311 c0 -6 5 -13 10 -16 6 -3 10 1 10 9 0 9 -4 16 -10 16 -5 0
-10 -4 -10 -9z"/>
<path d="M6746 274 c-10 -26 -7 -34 12 -34 21 0 42 18 42 37 0 19 -47 16 -54
-3z"/>
<path d="M6000 251 c0 -12 6 -21 16 -21 9 0 14 7 12 17 -5 25 -28 28 -28 4z"/>
<path d="M7242 253 c-9 -16 -9 -23 2 -32 17 -14 26 5 16 34 -7 19 -7 19 -18
-2z"/>
<path d="M7070 250 c0 -5 5 -10 11 -10 5 0 7 5 4 10 -3 6 -8 10 -11 10 -2 0
-4 -4 -4 -10z"/>
<path d="M6057 229 c-17 -23 -11 -60 7 -53 10 4 20 74 11 74 -2 0 -10 -9 -18
-21z"/>
<path d="M6267 218 c-7 -25 -3 -33 12 -23 13 8 15 45 2 45 -5 0 -11 -10 -14
-22z"/>
<path d="M9211 221 c-11 -7 -10 -11 7 -20 15 -8 21 -7 25 3 9 24 -7 32 -32 17z"/>
<path d="M6351 202 c-1 -8 -10 -12 -23 -10 -25 3 -35 -20 -22 -50 6 -14 8 -13
15 8 5 17 8 2 8 -50 0 -41 0 -80 0 -87 1 -9 61 -11 254 -9 138 2 257 4 262 5
6 1 35 -1 66 -4 l56 -6 -5 30 c-5 34 -25 46 -52 31 -13 -7 -21 -7 -25 0 -3 5
-14 10 -24 10 -10 0 -24 7 -31 15 -7 8 -24 15 -37 15 -21 0 -24 4 -19 23 3 15
-3 32 -19 52 l-25 30 -6 -23 c-8 -29 -41 -42 -104 -42 -58 0 -101 17 -93 36 6
17 -2 18 -29 3 -17 -9 -23 -8 -30 5 -7 13 -12 14 -28 3 -16 -9 -24 -9 -40 1
-12 7 -25 10 -30 7 -4 -3 -11 1 -13 7 -4 10 -6 10 -6 0z m49 -176 c0 -3 -4 -8
-10 -11 -5 -3 -10 -1 -10 4 0 6 5 11 10 11 6 0 10 -2 10 -4z"/>
<path d="M8960 200 c0 -5 7 -10 16 -10 8 0 12 5 9 10 -3 6 -10 10 -16 10 -5 0
-9 -4 -9 -10z"/>
<path d="M6250 145 c0 -8 5 -15 10 -15 6 0 10 7 10 15 0 8 -4 15 -10 15 -5 0
-10 -7 -10 -15z"/>
<path d="M7060 149 c0 -5 5 -7 10 -4 6 3 10 8 10 11 0 2 -4 4 -10 4 -5 0 -10
-5 -10 -11z"/>
<path d="M11448 143 c6 -2 18 -2 25 0 6 3 1 5 -13 5 -14 0 -19 -2 -12 -5z"/>
<path d="M5243 120 c3 -13 -2 -34 -14 -53 -21 -35 -25 -67 -9 -67 6 0 14 8 17
17 4 10 13 23 21 28 18 14 12 87 -7 93 -10 3 -12 -1 -8 -18z"/>
<path d="M7180 126 c0 -8 5 -18 11 -22 6 -3 9 -17 6 -30 -2 -15 3 -30 14 -40
18 -16 19 -15 25 14 4 18 11 32 16 32 5 0 6 10 2 23 -9 31 -14 34 -25 14 -13
-23 -29 -22 -29 3 0 11 -4 20 -10 20 -5 0 -10 -6 -10 -14z"/>
<path d="M8952 123 c-6 -2 -10 -9 -7 -13 7 -11 35 -2 35 11 0 10 -8 10 -28 2z"/>
<path d="M8722 85 c-10 -12 -9 -18 8 -35 11 -11 22 -20 25 -20 7 0 6 35 -1 54
-7 19 -15 20 -32 1z"/>
<path d="M6290 61 c0 -12 6 -21 15 -21 8 0 15 4 15 9 0 5 -7 14 -15 21 -13 10
-15 9 -15 -9z"/>
<path d="M6060 20 c0 -5 5 -10 10 -10 6 0 10 5 10 10 0 6 -4 10 -10 10 -5 0
-10 -4 -10 -10z"/>
<path d="M6165 10 c-3 -5 1 -10 9 -10 9 0 16 5 16 10 0 6 -4 10 -9 10 -6 0
-13 -4 -16 -10z"/>
</g>
</svg>
